<svg xmlns="http://www.w3.org/2000/svg" width="45" height="45" viewBox="0 0 45 45" fill="none">
  <path fill-rule="evenodd" clip-rule="evenodd" d="M22.1799 44.4733C10.0548 44.4733 0.225452 34.644 0.225452 22.5189C0.225452 10.3938 10.0548 0.564453 22.1799 0.564453C26.7874 0.564453 31.0635 1.98383 34.5946 4.40919L33.8742 5.43962C30.5471 3.15714 26.5194 1.8216 22.1799 1.8216C10.7491 1.8216 1.4826 11.0881 1.4826 22.5189C1.4826 33.9496 10.7491 43.2161 22.1799 43.2161C33.6107 43.2161 42.8771 33.9496 42.8771 22.5189C42.8771 17.1389 40.8245 12.2384 37.4596 8.5578L38.1312 7.43399C41.8524 11.3675 44.1343 16.6767 44.1343 22.5189C44.1343 34.644 34.305 44.4733 22.1799 44.4733Z" fill="#EC5409"/>
  <path d="M31.5784 10.6617C33.6092 8.3656 38.7666 2.32838 38.8961 2.20853L36.4912 6.55347L31.5784 10.6617Z" fill="#EC5409"/>
  <path d="M33.2524 12.3022L27.8176 15.0406L35.9637 7.82134L33.2524 12.3022Z" fill="#EC5409"/>
  <path d="M28.3867 19.0338L26.2893 17.2472L32.2491 13.6772L28.3867 19.0338Z" fill="#EC5409"/>
  <path fill-rule="evenodd" clip-rule="evenodd" d="M11.5115 6.59329C18.1781 2.11897 26.6388 2.38722 32.9099 6.6141C32.5897 7.03053 32.2754 7.47926 31.9737 7.95519C26.407 4.08958 18.8156 3.80008 12.8487 7.80476C7.88309 11.1374 5.2434 16.638 5.34351 22.2034C5.47259 21.9318 5.64425 21.6645 5.86665 21.4057C9.36897 17.6961 15.4208 17.8006 17.4431 17.8979C12.1044 19.7975 8.8119 22.2406 6.2546 27.3815C6.26617 27.4152 6.27784 27.4488 6.28962 27.4824C6.01296 27.9192 5.74749 28.3869 5.49918 28.8803C5.22098 29.4331 4.98151 29.9839 4.78164 30.5218C0.901447 22.1226 3.58408 11.9137 11.5115 6.59329ZM38.1025 11.8259C37.6586 11.1645 37.1807 10.5397 36.6727 9.95204C36.5287 10.2082 36.3758 10.4656 36.2143 10.723C36.0467 10.9903 35.8751 11.2492 35.7005 11.4988C35.934 11.8008 36.159 12.1126 36.3748 12.4343C40.5804 18.7006 40.0501 26.7584 35.6156 32.3814L33.5475 32.5687C30.5515 32.7629 27.6935 31.1392 26.6466 28.8982C26.1192 27.7698 26.043 27.7066 25.2127 27.7085C23.0946 27.7131 21.5156 26.6663 21.5195 25.26C21.522 24.4265 21.5254 24.4279 21.9048 25.4061C22.3467 26.5454 23.2451 27.0173 25.3032 27.1899C26.6735 27.3051 27.7563 28.1098 28.5425 29.5977C28.9598 30.3883 29.1983 30.5689 29.9868 30.6925C31.2279 30.8867 32.2365 30.1902 32.6266 28.8693C32.8832 27.9997 32.7156 27.3851 31.6255 25.2023C30.9054 23.76 30.2785 22.0395 30.2324 21.3794C30.1542 20.2548 30.0309 20.0806 28.2859 18.6289C27.2613 17.7763 25.9753 16.7393 25.4279 16.3244C24.8803 15.9097 24.0535 15.2589 23.5902 14.8786L22.7478 14.1871L22.8814 15.147C23.0007 16.0059 23.2399 16.2824 25.1492 17.7683C26.7738 19.0324 27.3624 19.6444 27.6125 20.3296C27.9233 21.1807 27.8662 21.1525 26.5683 19.8144C25.6274 18.8445 24.8111 18.2631 23.9756 17.9676C23.2231 17.7015 22.0916 16.9334 21.021 15.9621C19.3117 14.4113 19.2859 14.4001 19.2837 15.2124C19.2824 15.6661 19.5297 16.4765 19.8333 17.0139C20.2201 17.6988 20.2476 18.0115 19.9251 18.061C18.9859 18.2042 16.4079 20.0178 15.1101 21.4482C13.6358 23.0731 12.1595 26.1049 11.255 29.366C10.9586 30.4337 10.4403 31.7558 10.1027 32.3042L9.58316 33.1021C9.58088 33.0995 9.5786 33.0969 9.57632 33.0944C9.01796 33.9351 8.42047 34.6497 7.83056 35.1978C11.6071 39.4813 17.0011 41.7402 22.4593 41.6688L22.5577 41.7057C22.5606 41.6927 22.5633 41.6799 22.5661 41.6671C26.1208 41.6008 29.6983 40.5455 32.8699 38.417C41.6577 32.519 44.0005 20.6138 38.1025 11.8259ZM17.9695 38.2757C17.7519 37.2373 17.3232 35.8686 16.7018 34.2519C14.9157 29.6052 14.8823 26.2993 16.5877 22.9535L17.5635 21.0393L16.1815 22.7341C13.9628 25.455 13.615 27.8063 14.6775 32.9072C15.0365 34.6315 15.0922 36.1951 14.9733 37.1766C15.9379 37.6375 16.9416 38.0048 17.9695 38.2757ZM22.0154 38.8362C23.7896 38.8673 25.5781 38.6206 27.3125 38.0829C22.6442 35.9228 19.0211 31.145 18.8847 26.9352C18.7729 23.4904 21.7436 20.2231 24.3592 20.9143C26.3292 21.4349 26.7614 22.4905 25.0738 22.6599C23.9374 22.7738 24.6541 23.2488 25.8701 23.1878L26.8783 23.137L28.4177 25.4516C29.0123 26.3455 29.0386 26.061 29.0457 25.9838C29.0466 25.9739 29.0472 25.9674 29.0486 25.9673C29.0514 25.9669 29.0572 25.9895 29.074 26.0553L29.074 26.0554L29.0863 26.1029C29.1391 26.3078 29.1498 26.3934 29.1524 26.4143L29.1524 26.4143C29.1529 26.4179 29.1531 26.4196 29.1532 26.4196C29.1534 26.4196 29.1534 26.4184 29.1536 26.4162V26.4161C29.1546 26.3995 29.159 26.3269 29.2112 26.2695C29.525 25.9236 29.1961 25.4247 28.8704 24.9305L28.8704 24.9304L28.8703 24.9303C28.8 24.8237 28.7299 24.7174 28.6665 24.6128C26.6358 21.2678 25.474 20.1008 23.8729 19.7965C22.2701 19.4915 20.841 20.109 19.3166 21.7646C16.082 25.2774 16.4271 29.332 20.5628 36.4044C20.9445 37.0571 21.2659 37.589 21.5341 38.0329L21.5342 38.033C21.7191 38.339 21.8787 38.6032 22.0154 38.8362Z" fill="#EC5409"/>
</svg>
