<svg width="24" height="25" viewBox="0 0 24 25" fill="none" xmlns="http://www.w3.org/2000/svg">
<g filter="url(#filter0_i_127_19771)">
<rect y="0.5" width="24" height="24" rx="12" fill="url(#paint0_radial_127_19771)"/>
<rect y="0.5" width="24" height="24" rx="12" fill="url(#paint1_linear_127_19771)"/>
<rect y="0.5" width="24" height="24" rx="12" fill="url(#paint2_radial_127_19771)"/>
<path fill-rule="evenodd" clip-rule="evenodd" d="M12.0001 22.1239C6.68893 22.1239 2.38341 17.8184 2.38341 12.5073C2.38341 7.19614 6.68893 2.89062 12.0001 2.89062C14.0183 2.89062 15.8914 3.51238 17.4382 4.57481L17.1226 5.02616C15.6652 4.02632 13.901 3.44129 12.0001 3.44129C6.99305 3.44129 2.93407 7.50027 2.93407 12.5073C2.93407 17.5143 6.99305 21.5733 12.0001 21.5733C17.0071 21.5733 21.066 17.5143 21.066 12.5073C21.066 10.1508 20.167 8.00426 18.6931 6.39205L18.9873 5.89978C20.6172 7.62277 21.6167 9.9483 21.6167 12.5073C21.6167 17.8184 17.3112 22.1239 12.0001 22.1239Z" fill="#C43E0A"/>
<path d="M16.117 7.31488C17.0066 6.30913 19.2657 3.66466 19.3224 3.61216L18.269 5.51536L16.117 7.31488Z" fill="#C43E0A"/>
<path d="M16.8503 8.03378L14.4697 9.23328L18.0379 6.07104L16.8503 8.03378Z" fill="#C43E0A"/>
<path d="M14.7191 10.9831L13.8004 10.2005L16.4109 8.63675L14.7191 10.9831Z" fill="#C43E0A"/>
<path fill-rule="evenodd" clip-rule="evenodd" d="M7.32669 5.53057C10.2467 3.5708 13.9525 3.68818 16.6993 5.53937C16.5592 5.72166 16.4216 5.91807 16.2895 6.12638C13.8512 4.43309 10.5259 4.30627 7.91223 6.06044C5.73557 7.5213 4.57921 9.93315 4.62483 12.3728C4.68137 12.2538 4.75657 12.1367 4.85399 12.0233C6.3881 10.3984 9.039 10.4442 9.9248 10.4868C7.58701 11.3186 6.14496 12.3884 5.02493 14.6388C5.02969 14.6527 5.03449 14.6665 5.03934 14.6803C4.91814 14.8717 4.80184 15.0766 4.69306 15.2927C4.5712 15.5348 4.4663 15.7761 4.37875 16.0117C2.67925 12.3327 3.85434 7.86103 7.32669 5.53057ZM18.9743 7.82261C18.7798 7.53274 18.5703 7.25889 18.3476 7.00138C18.2846 7.11356 18.2176 7.22631 18.1469 7.33907C18.0735 7.45605 17.9984 7.56935 17.922 7.67859C18.0243 7.81086 18.1228 7.94744 18.2173 8.08829C20.0609 10.8352 19.8269 14.3679 17.8804 16.8312L16.979 16.9129C15.6666 16.9979 14.4148 16.2867 13.9562 15.3051C13.7252 14.8108 13.6918 14.7831 13.3281 14.784C12.4003 14.786 11.7087 14.3274 11.7104 13.7114C11.7115 13.3463 11.713 13.3469 11.8791 13.7754C12.0727 14.2745 12.4663 14.4812 13.3678 14.5568C13.968 14.6072 14.4423 14.9597 14.7866 15.6115C14.9694 15.9578 15.0739 16.0369 15.4193 16.091C15.9629 16.1761 16.4047 15.871 16.5756 15.2924C16.688 14.9115 16.6146 14.6423 16.1371 13.6861C15.8217 13.0544 15.5471 12.3008 15.5269 12.0116C15.4926 11.519 15.4386 11.4427 14.6743 10.8068C14.2255 10.4334 13.6621 9.97911 13.4224 9.79737C13.1825 9.61572 12.8203 9.33067 12.6174 9.16407L12.2484 8.8612L12.3069 9.28166C12.3592 9.65789 12.464 9.77899 13.3003 10.4298C14.0119 10.9836 14.2697 11.2516 14.3793 11.5518C14.5154 11.9246 14.4904 11.9122 13.9219 11.3261C13.5098 10.9013 13.1522 10.6466 12.7862 10.5172C12.4566 10.4006 11.961 10.0642 11.492 9.6387C10.7433 8.95941 10.732 8.95447 10.7311 9.31029C10.7305 9.50902 10.8388 9.86399 10.9718 10.0994C11.1412 10.3994 11.1532 10.5364 11.012 10.5581C10.6006 10.6208 9.47134 11.4152 8.90287 12.0417C8.25709 12.7535 7.61045 14.0815 7.21425 15.51C7.08442 15.9777 6.85736 16.5568 6.7095 16.797L6.48379 17.1436C6.48224 17.1419 6.48068 17.1401 6.47912 17.1383C6.23448 17.5067 5.97269 17.8198 5.71422 18.06C7.36585 19.9334 9.72386 20.9228 12.1109 20.8948L12.1652 20.9151C12.1667 20.908 12.1682 20.9009 12.1697 20.8939C13.7265 20.8647 15.2933 20.4024 16.6823 19.4702C20.5316 16.8868 21.5578 11.6719 18.9743 7.82261ZM10.1543 19.4073C10.0586 18.9531 9.87123 18.3555 9.60011 17.6501C8.81773 15.6147 8.80311 14.1667 9.5501 12.7011L9.97754 11.8626L9.37221 12.605C8.40034 13.7968 8.248 14.8268 8.71338 17.0611C8.87008 17.8136 8.89486 18.4962 8.84352 18.9265C9.26555 19.128 9.70461 19.2887 10.1543 19.4073ZM11.9246 19.653C12.7004 19.6669 13.4826 19.5596 14.2412 19.3251C12.1996 18.3775 10.616 16.2872 10.5563 14.4452C10.5073 12.9363 11.8086 11.5051 12.9543 11.8079C13.8172 12.0359 14.0065 12.4983 13.2672 12.5725C12.7695 12.6224 13.0834 12.8305 13.6161 12.8037L14.0577 12.7815L14.732 13.7954C14.9924 14.1869 15.0039 14.0623 15.0071 14.0285C15.0075 14.0241 15.0077 14.0213 15.0083 14.0212C15.0095 14.0211 15.0121 14.031 15.0195 14.0598L15.0248 14.0807C15.048 14.1704 15.0527 14.2079 15.0538 14.217L15.0542 14.2194L15.0543 14.2178C15.0548 14.2106 15.0567 14.1788 15.0795 14.1536C15.217 14.0021 15.073 13.7836 14.9303 13.5671L14.9303 13.5671C14.8995 13.5204 14.8688 13.4738 14.841 13.4279C13.9514 11.9627 13.4425 11.4516 12.7413 11.3183C12.0392 11.1846 11.4132 11.4551 10.7455 12.1804C9.32862 13.7191 9.47978 15.4951 11.2913 18.593C11.4585 18.8789 11.5993 19.1119 11.7168 19.3063C11.7965 19.4381 11.8654 19.5522 11.9246 19.653Z" fill="#C43E0A"/>
</g>
<defs>
<filter id="filter0_i_127_19771" x="0" y="-0.1" width="24" height="24.6" filterUnits="userSpaceOnUse" color-interpolation-filters="sRGB">
<feFlood flood-opacity="0" result="BackgroundImageFix"/>
<feBlend mode="normal" in="SourceGraphic" in2="BackgroundImageFix" result="shape"/>
<feColorMatrix in="SourceAlpha" type="matrix" values="0 0 0 0 0 0 0 0 0 0 0 0 0 0 0 0 0 0 127 0" result="hardAlpha"/>
<feOffset dy="-0.6"/>
<feGaussianBlur stdDeviation="1.8"/>
<feComposite in2="hardAlpha" operator="arithmetic" k2="-1" k3="1"/>
<feColorMatrix type="matrix" values="0 0 0 0 1 0 0 0 0 0.99172 0 0 0 0 0.50302 0 0 0 1 0"/>
<feBlend mode="normal" in2="shape" result="effect1_innerShadow_127_19771"/>
</filter>
<radialGradient id="paint0_radial_127_19771" cx="0" cy="0" r="1" gradientUnits="userSpaceOnUse" gradientTransform="translate(12 0.500001) rotate(90) scale(24 22.2081)">
<stop offset="0.668701" stop-color="white"/>
<stop offset="1" stop-color="#C2FF5D"/>
</radialGradient>
<linearGradient id="paint1_linear_127_19771" x1="0" y1="12.5" x2="24" y2="12.5" gradientUnits="userSpaceOnUse">
<stop stop-color="#FC6F13"/>
<stop offset="1" stop-color="#A2FE03"/>
</linearGradient>
<radialGradient id="paint2_radial_127_19771" cx="0" cy="0" r="1" gradientUnits="userSpaceOnUse" gradientTransform="translate(11.7 0.800001) rotate(73.1013) scale(24.7695 37.4591)">
<stop stop-color="white"/>
<stop offset="0.509727" stop-color="white" stop-opacity="0"/>
</radialGradient>
</defs>
</svg>
