<svg xmlns="http://www.w3.org/2000/svg" width="20" height="20" viewBox="0 0 20 20" fill="none">
  <path d="M16.0673 11.6922L10.4423 17.3172C10.3842 17.3753 10.3153 17.4214 10.2394 17.4529C10.1636 17.4843 10.0822 17.5005 10.0001 17.5005C9.91797 17.5005 9.83664 17.4843 9.76077 17.4529C9.68489 17.4214 9.61596 17.3753 9.55792 17.3172L3.93292 11.6922C3.81564 11.5749 3.74976 11.4159 3.74976 11.25C3.74976 11.0841 3.81564 10.9251 3.93292 10.8078C4.05019 10.6905 4.20925 10.6247 4.3751 10.6247C4.54096 10.6247 4.70002 10.6905 4.81729 10.8078L9.3751 15.3664V3.125C9.3751 2.95924 9.44095 2.80027 9.55816 2.68306C9.67537 2.56585 9.83434 2.5 10.0001 2.5C10.1659 2.5 10.3248 2.56585 10.442 2.68306C10.5593 2.80027 10.6251 2.95924 10.6251 3.125V15.3664L15.1829 10.8078C15.3002 10.6905 15.4593 10.6247 15.6251 10.6247C15.791 10.6247 15.95 10.6905 16.0673 10.8078C16.1846 10.9251 16.2505 11.0841 16.2505 11.25C16.2505 11.4159 16.1846 11.5749 16.0673 11.6922Z" fill="currentColor"/>
</svg>
