<svg xmlns="http://www.w3.org/2000/svg" width="16" height="17" viewBox="0 0 16 17" fill="none">
  <path d="M3.22895 7.63515C3.29888 7.70697 3.39496 7.74729 3.4952 7.7469L5.4483 7.7469C5.60065 7.7469 5.72417 7.87042 5.72417 8.02277L5.72417 14.1304C5.72417 14.3345 5.88966 14.5 6.09382 14.5L9.8952 14.5C10.0994 14.5 10.2649 14.3345 10.2649 14.1304L10.2648 8.02277C10.2648 7.87042 10.3884 7.7469 10.5407 7.7469L12.4993 7.7469C12.7035 7.75075 12.8721 7.58842 12.8759 7.38431C12.8778 7.28213 12.8374 7.1837 12.7642 7.11242L8.26209 2.61036C8.19361 2.54079 8.1004 2.50112 8.00277 2.5C7.90323 2.49964 7.80777 2.53942 7.73794 2.61036L3.23588 7.11242C3.08963 7.25485 3.08652 7.48887 3.22895 7.63515Z" fill="currentColor"/>
</svg>
