<svg xmlns="http://www.w3.org/2000/svg" width="20" height="21" viewBox="0 0 20 21" fill="none">
  <path d="M5.63339 19.0417H14.3667C16.6667 19.0417 17.5834 17.6333 17.6917 15.9167L18.1251 9.03333C18.2417 7.23333 16.8084 5.70833 15.0001 5.70833C14.4917 5.70833 14.0251 5.41667 13.7917 4.96667L13.1917 3.75833C12.8084 3 11.8084 2.375 10.9584 2.375H9.05006C8.19173 2.375 7.19173 3 6.80839 3.75833L6.20839 4.96667C5.97506 5.41667 5.50839 5.70833 5.00006 5.70833C3.19172 5.70833 1.75839 7.23333 1.87506 9.03333L2.30839 15.9167C2.40839 17.6333 3.33339 19.0417 5.63339 19.0417Z" stroke="#FAFAFA" stroke-width="1.5" stroke-linecap="round" stroke-linejoin="round"/>
  <path d="M8.75 7.375H11.25" stroke="#FAFAFA" stroke-width="1.5" stroke-linecap="round" stroke-linejoin="round"/>
  <path d="M10.0001 15.7096C11.4917 15.7096 12.7084 14.493 12.7084 13.0013C12.7084 11.5096 11.4917 10.293 10.0001 10.293C8.50841 10.293 7.29175 11.5096 7.29175 13.0013C7.29175 14.493 8.50841 15.7096 10.0001 15.7096Z" stroke="#FAFAFA" stroke-width="1.5" stroke-linecap="round" stroke-linejoin="round"/>
</svg>
