<svg xmlns="http://www.w3.org/2000/svg" width="24" height="25" viewBox="0 0 24 25" fill="none">
  <path d="M18 1.70898H6C4.67441 1.71057 3.40356 2.23787 2.46622 3.1752C1.52888 4.11254 1.00159 5.38339 1 6.70898V14.709C1.00145 15.8612 1.40009 16.9777 2.12872 17.8702C2.85735 18.7628 3.87141 19.3769 5 19.609V22.709C4.99997 22.89 5.0491 23.0677 5.14213 23.223C5.23516 23.3783 5.36861 23.5054 5.52823 23.5909C5.68786 23.6763 5.86769 23.7167 6.04852 23.708C6.22935 23.6992 6.4044 23.6415 6.555 23.541L12.3 19.709H18C19.3256 19.7074 20.5964 19.1801 21.5338 18.2428C22.4711 17.3054 22.9984 16.0346 23 14.709V6.70898C22.9984 5.38339 22.4711 4.11254 21.5338 3.1752C20.5964 2.23787 19.3256 1.71057 18 1.70898ZM16 13.709H8C7.73478 13.709 7.48043 13.6036 7.29289 13.4161C7.10536 13.2286 7 12.9742 7 12.709C7 12.4438 7.10536 12.1894 7.29289 12.0019C7.48043 11.8143 7.73478 11.709 8 11.709H16C16.2652 11.709 16.5196 11.8143 16.7071 12.0019C16.8946 12.1894 17 12.4438 17 12.709C17 12.9742 16.8946 13.2286 16.7071 13.4161C16.5196 13.6036 16.2652 13.709 16 13.709ZM18 9.70898H6C5.73478 9.70898 5.48043 9.60363 5.29289 9.41609C5.10536 9.22855 5 8.9742 5 8.70898C5 8.44377 5.10536 8.18941 5.29289 8.00188C5.48043 7.81434 5.73478 7.70898 6 7.70898H18C18.2652 7.70898 18.5196 7.81434 18.7071 8.00188C18.8946 8.18941 19 8.44377 19 8.70898C19 8.9742 18.8946 9.22855 18.7071 9.41609C18.5196 9.60363 18.2652 9.70898 18 9.70898Z" fill="currentColor"/>
</svg>
