<svg width="349" height="350" viewBox="0 0 349 350" fill="none" xmlns="http://www.w3.org/2000/svg">
<g filter="url(#filter0_f_31_1708)">
<circle cx="174.613" cy="175.079" r="60.3774" transform="rotate(16.8826 174.613 175.079)" fill="#A7FF0E"/>
</g>
<g filter="url(#filter1_di_31_1708)">
<path d="M254.031 181.66C257.267 144.728 234.222 109.173 197.212 97.9404C173.224 90.6604 148.168 95.095 128.557 108.581C96.9725 98.4101 76.6483 99.4422 68.4376 111.863C66.2674 115.123 64.0648 120.694 65.9105 128.695C68.66 140.638 79.6074 154.285 94.0881 167.584C90.8403 204.763 114.348 239.998 150.765 251.051C174.379 258.217 199.136 254.288 219.241 240.481C220.505 240.896 221.788 241.348 223.051 241.732C248.159 249.352 270.622 250.704 279.511 237.151C288.234 224.143 279.31 204.965 254.031 181.66ZM156.573 231.913C134.346 225.167 118.633 206.426 114.777 184.7C126.844 193.796 139.701 202.254 151.674 209.285C163.709 216.354 178.748 224.231 194.321 231.006C182.36 235.297 169.261 235.763 156.573 231.913ZM161.801 192.032C140.435 179.486 124.145 167.468 112.181 157.033C111.484 156.195 110.704 155.425 109.762 154.847C91.6703 138.571 84.3621 126.498 84.9929 123.043C86.138 121.99 93.7487 120.12 111.575 124.495C110.43 125.924 109.162 127.211 108.112 128.742C104.977 133.288 106.107 139.515 110.652 142.65C115.211 145.81 121.424 144.654 124.559 140.109C127.563 135.753 131.173 132.052 135.063 128.739C136.352 128.106 137.43 127.137 138.341 125.993C153.248 115.061 172.774 111.425 191.403 117.078C216.252 124.62 232.667 146.73 234.159 171.114C230.477 173.675 225.803 174.545 221.392 173.207C213.479 170.805 208.994 162.411 211.396 154.497C212.999 149.215 210.013 143.627 204.732 142.024C199.45 140.421 193.862 143.407 192.259 148.689C186.654 167.158 197.117 186.74 215.584 192.345C220.779 193.921 226.145 194.181 231.3 193.342C230.804 194.874 230.305 196.415 229.673 197.843C227.431 202.89 229.704 208.794 234.75 211.036C235.137 211.206 235.521 211.354 235.923 211.476C240.678 212.919 245.879 210.62 247.952 205.961C248.187 205.427 248.348 204.828 248.567 204.278C260.936 217.374 263.095 224.791 262.956 225.971C257.154 231.212 216.213 223.981 161.801 192.032Z" fill="url(#paint0_radial_31_1708)"/>
<path d="M254.031 181.66C257.267 144.728 234.222 109.173 197.212 97.9404C173.224 90.6604 148.168 95.095 128.557 108.581C96.9725 98.4101 76.6483 99.4422 68.4376 111.863C66.2674 115.123 64.0648 120.694 65.9105 128.695C68.66 140.638 79.6074 154.285 94.0881 167.584C90.8403 204.763 114.348 239.998 150.765 251.051C174.379 258.217 199.136 254.288 219.241 240.481C220.505 240.896 221.788 241.348 223.051 241.732C248.159 249.352 270.622 250.704 279.511 237.151C288.234 224.143 279.31 204.965 254.031 181.66ZM156.573 231.913C134.346 225.167 118.633 206.426 114.777 184.7C126.844 193.796 139.701 202.254 151.674 209.285C163.709 216.354 178.748 224.231 194.321 231.006C182.36 235.297 169.261 235.763 156.573 231.913ZM161.801 192.032C140.435 179.486 124.145 167.468 112.181 157.033C111.484 156.195 110.704 155.425 109.762 154.847C91.6703 138.571 84.3621 126.498 84.9929 123.043C86.138 121.99 93.7487 120.12 111.575 124.495C110.43 125.924 109.162 127.211 108.112 128.742C104.977 133.288 106.107 139.515 110.652 142.65C115.211 145.81 121.424 144.654 124.559 140.109C127.563 135.753 131.173 132.052 135.063 128.739C136.352 128.106 137.43 127.137 138.341 125.993C153.248 115.061 172.774 111.425 191.403 117.078C216.252 124.62 232.667 146.73 234.159 171.114C230.477 173.675 225.803 174.545 221.392 173.207C213.479 170.805 208.994 162.411 211.396 154.497C212.999 149.215 210.013 143.627 204.732 142.024C199.45 140.421 193.862 143.407 192.259 148.689C186.654 167.158 197.117 186.74 215.584 192.345C220.779 193.921 226.145 194.181 231.3 193.342C230.804 194.874 230.305 196.415 229.673 197.843C227.431 202.89 229.704 208.794 234.75 211.036C235.137 211.206 235.521 211.354 235.923 211.476C240.678 212.919 245.879 210.62 247.952 205.961C248.187 205.427 248.348 204.828 248.567 204.278C260.936 217.374 263.095 224.791 262.956 225.971C257.154 231.212 216.213 223.981 161.801 192.032Z" fill="url(#paint1_linear_31_1708)"/>
<path d="M254.031 181.66C257.267 144.728 234.222 109.173 197.212 97.9404C173.224 90.6604 148.168 95.095 128.557 108.581C96.9725 98.4101 76.6483 99.4422 68.4376 111.863C66.2674 115.123 64.0648 120.694 65.9105 128.695C68.66 140.638 79.6074 154.285 94.0881 167.584C90.8403 204.763 114.348 239.998 150.765 251.051C174.379 258.217 199.136 254.288 219.241 240.481C220.505 240.896 221.788 241.348 223.051 241.732C248.159 249.352 270.622 250.704 279.511 237.151C288.234 224.143 279.31 204.965 254.031 181.66ZM156.573 231.913C134.346 225.167 118.633 206.426 114.777 184.7C126.844 193.796 139.701 202.254 151.674 209.285C163.709 216.354 178.748 224.231 194.321 231.006C182.36 235.297 169.261 235.763 156.573 231.913ZM161.801 192.032C140.435 179.486 124.145 167.468 112.181 157.033C111.484 156.195 110.704 155.425 109.762 154.847C91.6703 138.571 84.3621 126.498 84.9929 123.043C86.138 121.99 93.7487 120.12 111.575 124.495C110.43 125.924 109.162 127.211 108.112 128.742C104.977 133.288 106.107 139.515 110.652 142.65C115.211 145.81 121.424 144.654 124.559 140.109C127.563 135.753 131.173 132.052 135.063 128.739C136.352 128.106 137.43 127.137 138.341 125.993C153.248 115.061 172.774 111.425 191.403 117.078C216.252 124.62 232.667 146.73 234.159 171.114C230.477 173.675 225.803 174.545 221.392 173.207C213.479 170.805 208.994 162.411 211.396 154.497C212.999 149.215 210.013 143.627 204.732 142.024C199.45 140.421 193.862 143.407 192.259 148.689C186.654 167.158 197.117 186.74 215.584 192.345C220.779 193.921 226.145 194.181 231.3 193.342C230.804 194.874 230.305 196.415 229.673 197.843C227.431 202.89 229.704 208.794 234.75 211.036C235.137 211.206 235.521 211.354 235.923 211.476C240.678 212.919 245.879 210.62 247.952 205.961C248.187 205.427 248.348 204.828 248.567 204.278C260.936 217.374 263.095 224.791 262.956 225.971C257.154 231.212 216.213 223.981 161.801 192.032Z" fill="url(#paint2_radial_31_1708)"/>
<path d="M111.639 157.562L111.6 157.516C110.934 156.713 110.214 156.01 109.367 155.49L109.308 155.454L109.257 155.408C100.183 147.244 93.7946 140.119 89.7472 134.583C87.7246 131.816 86.2759 129.432 85.3697 127.502C84.9167 126.537 84.5924 125.672 84.4023 124.919C84.2148 124.176 84.1442 123.489 84.2505 122.907L84.2959 122.658L84.4821 122.487C84.721 122.268 85.0599 122.082 85.4484 121.924C85.8493 121.761 86.3525 121.608 86.9596 121.473C88.1745 121.205 89.8435 121.005 92.0192 120.979C96.372 120.925 102.796 121.563 111.755 123.762L112.903 124.044L112.164 124.967C111.737 125.5 111.289 126.019 110.851 126.525C110.693 126.709 110.536 126.891 110.382 127.071C109.795 127.757 109.236 128.438 108.735 129.169L108.734 129.171C105.834 133.375 106.881 139.131 111.081 142.028L111.082 142.029C115.296 144.95 121.038 143.883 123.937 139.68L123.937 139.68C126.989 135.257 130.649 131.508 134.573 128.165L134.645 128.103L134.73 128.062C135.894 127.49 136.889 126.605 137.751 125.523L137.814 125.444L137.895 125.384C152.991 114.313 172.763 110.633 191.623 116.356C216.783 123.992 233.402 146.379 234.912 171.068L234.938 171.491L234.59 171.734C230.729 174.419 225.817 175.338 221.173 173.929C212.861 171.406 208.151 162.59 210.674 154.278C212.156 149.395 209.395 144.228 204.513 142.746C199.63 141.265 194.464 144.025 192.981 148.909C187.498 166.978 197.735 186.139 215.803 191.622C220.881 193.164 226.13 193.419 231.179 192.597L232.399 192.398L232.018 193.574L232.011 193.599C231.519 195.116 231.01 196.686 230.363 198.149L230.363 198.15C228.29 202.814 230.39 208.272 235.054 210.345C235.42 210.506 235.775 210.642 236.142 210.753C240.536 212.087 245.344 209.963 247.261 205.657L111.639 157.562ZM111.639 157.562L111.685 157.602M111.639 157.562L111.685 157.602M111.685 157.602C123.688 168.07 140.017 180.116 161.419 192.683C188.672 208.685 212.568 218.507 230.397 223.673C239.309 226.255 246.723 227.679 252.294 228.124C255.078 228.347 257.424 228.327 259.277 228.076C261.101 227.828 262.564 227.342 263.462 226.531L263.672 226.341L263.705 226.059C263.737 225.79 263.699 225.45 263.624 225.086C263.546 224.703 263.414 224.232 263.217 223.674C262.823 222.558 262.16 221.07 261.108 219.22C259.004 215.518 255.333 210.342 249.116 203.759L248.304 202.9M111.685 157.602L248.304 202.9M248.304 202.9L247.866 203.998M248.304 202.9L247.866 203.998M247.866 203.998C247.762 204.259 247.671 204.529 247.587 204.777M247.866 203.998L247.587 204.777M247.587 204.777L247.551 204.882M247.587 204.777L247.551 204.882M247.551 204.882C247.454 205.166 247.365 205.421 247.262 205.655L247.551 204.882ZM253.279 181.594L253.247 181.963L253.52 182.215C266.128 193.839 274.596 204.38 278.836 213.583C283.069 222.768 283.051 230.517 278.884 236.73L278.88 236.737C274.624 243.225 267.077 246.228 257.332 246.627C247.589 247.026 235.79 244.809 223.271 241.01C222.436 240.756 221.601 240.475 220.756 240.191C220.332 240.049 219.906 239.905 219.476 239.764L219.121 239.648L218.814 239.859C198.897 253.536 174.378 257.428 150.984 250.328C114.909 239.38 91.6231 204.474 94.8399 167.649L94.8723 167.279L94.5986 167.028C87.3805 160.399 81.0591 153.698 76.2054 147.18C71.347 140.656 67.9881 134.355 66.6459 128.525L66.6459 128.525C64.8535 120.755 66.9933 115.395 69.0659 112.281L69.0672 112.279C72.9963 106.335 79.8621 103.035 89.7726 102.504C99.6956 101.972 112.572 104.226 128.326 109.299L128.679 109.413L128.985 109.203C148.412 95.8433 173.23 91.451 196.992 98.6626C233.656 109.79 256.484 145.012 253.279 181.594ZM115.231 184.097L113.699 182.942L114.034 184.832C117.938 206.827 133.845 225.803 156.354 232.635C169.199 236.533 182.464 236.061 194.575 231.716L196.368 231.073L194.622 230.314C179.08 223.553 164.068 215.69 152.057 208.634L152.056 208.634C140.106 201.617 127.274 193.175 115.231 184.097Z" stroke="url(#paint3_linear_31_1708)" stroke-width="1.50943" style="mix-blend-mode:soft-light"/>
</g>
<defs>
<filter id="filter0_f_31_1708" x="0.408218" y="0.874222" width="348.409" height="348.41" filterUnits="userSpaceOnUse" color-interpolation-filters="sRGB">
<feFlood flood-opacity="0" result="BackgroundImageFix"/>
<feBlend mode="normal" in="SourceGraphic" in2="BackgroundImageFix" result="shape"/>
<feGaussianBlur stdDeviation="56.9057" result="effect1_foregroundBlur_31_1708"/>
</filter>
<filter id="filter1_di_31_1708" x="40.6917" y="72.9535" width="266.601" height="209.158" filterUnits="userSpaceOnUse" color-interpolation-filters="sRGB">
<feFlood flood-opacity="0" result="BackgroundImageFix"/>
<feColorMatrix in="SourceAlpha" type="matrix" values="0 0 0 0 0 0 0 0 0 0 0 0 0 0 0 0 0 0 127 0" result="hardAlpha"/>
<feOffset dy="3.01887"/>
<feGaussianBlur stdDeviation="12.2642"/>
<feComposite in2="hardAlpha" operator="out"/>
<feColorMatrix type="matrix" values="0 0 0 0 0.635294 0 0 0 0 0.996078 0 0 0 0 0.0117647 0 0 0 0.27 0"/>
<feBlend mode="normal" in2="BackgroundImageFix" result="effect1_dropShadow_31_1708"/>
<feBlend mode="normal" in="SourceGraphic" in2="effect1_dropShadow_31_1708" result="shape"/>
<feColorMatrix in="SourceAlpha" type="matrix" values="0 0 0 0 0 0 0 0 0 0 0 0 0 0 0 0 0 0 127 0" result="hardAlpha"/>
<feOffset dy="-0.754717"/>
<feGaussianBlur stdDeviation="2.26415"/>
<feComposite in2="hardAlpha" operator="arithmetic" k2="-1" k3="1"/>
<feColorMatrix type="matrix" values="0 0 0 0 1 0 0 0 0 0.99172 0 0 0 0 0.50302 0 0 0 1 0"/>
<feBlend mode="normal" in2="shape" result="effect2_innerShadow_31_1708"/>
</filter>
<radialGradient id="paint0_radial_31_1708" cx="0" cy="0" r="1" gradientUnits="userSpaceOnUse" gradientTransform="translate(197.233 97.947) rotate(106.883) scale(160 222.081)">
<stop offset="0.668701" stop-color="white"/>
<stop offset="1" stop-color="#C2FF5D"/>
</radialGradient>
<linearGradient id="paint1_linear_31_1708" x1="59.1721" y1="139.65" x2="288.829" y2="209.348" gradientUnits="userSpaceOnUse">
<stop stop-color="#C2FE5E"/>
<stop offset="1" stop-color="#A2FE03"/>
</linearGradient>
<radialGradient id="paint2_radial_31_1708" cx="0" cy="0" r="1" gradientUnits="userSpaceOnUse" gradientTransform="translate(193.782 98.9896) rotate(82.384) scale(173.632 356.249)">
<stop stop-color="white"/>
<stop offset="0.509727" stop-color="white" stop-opacity="0"/>
</radialGradient>
<linearGradient id="paint3_linear_31_1708" x1="168.777" y1="78.6632" x2="213.598" y2="270.12" gradientUnits="userSpaceOnUse">
<stop stop-color="white" stop-opacity="0"/>
<stop offset="1" stop-color="white"/>
</linearGradient>
</defs>
</svg>
