<svg xmlns="http://www.w3.org/2000/svg" width="22" height="21" viewBox="0 0 22 21" fill="none">
  <path fill-rule="evenodd" clip-rule="evenodd" d="M11.9019 0.915475C11.3065 0.796404 10.6935 0.796404 10.0981 0.915475C8.77522 1.18006 7.63523 2.0122 6.98005 3.19153L0.794132 14.3262C0.437271 14.9685 0.25 15.6912 0.25 16.426C0.25 18.8141 2.18588 20.75 4.57391 20.75H17.4261C19.8141 20.75 21.75 18.8141 21.75 16.426C21.75 15.6912 21.5627 14.9685 21.2059 14.3262L15.02 3.19153C14.3648 2.0122 13.2248 1.18006 11.9019 0.915475ZM11 12.25C10.5858 12.25 10.25 11.9142 10.25 11.5V7.5C10.25 7.08579 10.5858 6.75 11 6.75C11.4142 6.75 11.75 7.08579 11.75 7.5V11.5C11.75 11.9142 11.4142 12.25 11 12.25ZM11.75 15C11.75 15.4142 11.4142 15.75 11 15.75C10.5858 15.75 10.25 15.4142 10.25 15V14.5C10.25 14.0858 10.5858 13.75 11 13.75C11.4142 13.75 11.75 14.0858 11.75 14.5V15Z" fill="currentColor"/>
</svg>
