<svg xmlns="http://www.w3.org/2000/svg" width="160" height="160" viewBox="0 0 160 160" fill="none">
  <path d="M60.3438 88.8437C70.2812 105.844 80.2187 122.812 90.1562 139.812L150.688 115.938L145.344 92.2812C144.938 95.625 144.531 98.9375 144.125 102.281C144.594 105.312 145.094 108.312 145.562 111.344L93.875 130.438C85.1562 116.281 76.4375 102.094 67.7187 87.9375C65.2812 88.2188 62.8125 88.5312 60.3438 88.8437Z" fill="#6EAB05"/>
  <path d="M12.4375 75.4688C30.3438 70.125 48.25 64.7812 66.1875 59.4375L147.375 75.4688C130.656 82.4375 113.969 89.4062 97.25 96.375C68.9688 89.4375 40.6875 82.4687 12.4375 75.4688Z" fill="#064D01"/>
  <path d="M12.4375 75.4688L22.625 129.656C23.5 134.312 27.1563 137.906 31.8125 138.719L90.8438 149C93.9688 149.531 97.1563 149.187 100.063 147.937L133.531 133.687C138.063 131.75 141.219 127.531 141.813 122.625L147.375 75.4375C130.469 81.4062 113.563 87.375 96.6875 93.3438L12.4375 75.4688Z" fill="#DFFFCC"/>
  <path d="M9.53125 73.125C9.96875 75.5313 10.4062 77.9375 10.875 80.3438C39.125 86.8125 67.375 93.3125 95.6562 99.7812C113.531 93.0937 131.437 86.4063 149.312 79.7188V72.8125L95.625 91.5C66.9375 85.375 38.2187 79.25 9.53125 73.125Z" fill="#6EAB05"/>
  <path d="M9.53125 73.125L66.25 56.625L149.281 72.8125C148.625 73.6875 148 74.5938 147.344 75.4688C120.281 70.125 93.2188 64.7812 66.1563 59.4375C48.3438 65.1562 30.5 70.8438 12.6875 76.5625C11.625 75.4375 10.5938 74.2812 9.53125 73.125Z" fill="#6EAB05"/>
  <path d="M31.5626 132.876L31.2501 132.907C30.5626 133.001 29.9376 132.501 29.8438 131.813L25.1876 93.2818C25.0938 92.5943 25.5938 91.9693 26.2813 91.8756L26.5938 91.8443C27.2813 91.7506 27.9063 92.2506 28.0001 92.9381L32.6563 131.501C32.7501 132.188 32.2501 132.813 31.5626 132.876Z" fill="#064D01"/>
  <path d="M44.2813 135.563L43.9688 135.594C43.2813 135.688 42.6563 135.188 42.5626 134.501L37.9063 95.9381C37.8126 95.2506 38.3126 94.6256 39.0001 94.5318L39.3126 94.5006C40.0001 94.4068 40.6251 94.9068 40.7188 95.5943L45.3751 134.157C45.4688 134.844 44.9688 135.469 44.2813 135.563Z" fill="#064D01"/>
  <path d="M57.8126 139.001L57.5001 139.032C56.8126 139.126 56.1876 138.626 56.0938 137.938L51.4376 99.3756C51.3438 98.6881 51.8438 98.0631 52.5313 97.9693L52.8438 97.9381C53.5313 97.8443 54.1563 98.3443 54.2501 99.0318L58.9063 137.594C58.9688 138.313 58.5001 138.938 57.8126 139.001Z" fill="#064D01"/>
  <path d="M70.8438 140.407L70.5313 140.438C69.8438 140.532 69.2188 140.032 69.1251 139.344L64.4688 100.782C64.3751 100.094 64.8751 99.4693 65.5626 99.3756L65.8751 99.3443C66.5626 99.2506 67.1876 99.7506 67.2813 100.438L71.9376 139.001C72.0313 139.688 71.5313 140.344 70.8438 140.407Z" fill="#064D01"/>
  <path d="M85.7501 144.813L85.4376 144.844C84.7501 144.938 84.1251 144.438 84.0313 143.751L79.3751 105.188C79.2813 104.501 79.7813 103.876 80.4688 103.782L80.7813 103.751C81.4688 103.657 82.0938 104.157 82.1876 104.844L86.8438 143.407C86.9376 144.094 86.4376 144.719 85.7501 144.813Z" fill="#064D01"/>
  <path d="M107.094 140.531H106.781C106.094 140.531 105.531 139.969 105.531 139.281L105.656 100.438C105.656 99.75 106.219 99.1875 106.906 99.1875H107.219C107.906 99.1875 108.469 99.75 108.469 100.438L108.344 139.281C108.344 139.969 107.781 140.531 107.094 140.531Z" fill="#064D01"/>
  <path d="M120.062 135.688H119.75C119.062 135.688 118.5 135.125 118.5 134.438L118.625 95.5938C118.625 94.9062 119.187 94.3438 119.875 94.3438H120.187C120.875 94.3438 121.437 94.9062 121.437 95.5938L121.312 134.438C121.312 135.125 120.75 135.688 120.062 135.688Z" fill="#064D01"/>
  <path d="M131.906 131.531H131.594C130.906 131.531 130.344 130.969 130.344 130.281L130.469 91.4375C130.469 90.75 131.031 90.1875 131.719 90.1875H132.031C132.719 90.1875 133.281 90.75 133.281 91.4375L133.156 130.281C133.156 130.969 132.594 131.531 131.906 131.531Z" fill="#064D01"/>
  <path d="M95.625 149.312C95.5312 149.312 95.4688 149.25 95.4688 149.156V91.5C95.4688 91.4062 95.5312 91.3438 95.625 91.3438C95.7188 91.3438 95.7812 91.4062 95.7812 91.5V149.125C95.7812 149.219 95.7188 149.312 95.625 149.312Z" fill="#064D01"/>
  <path d="M58.8438 87.9688C69.2812 105.25 79.7187 122.531 90.125 139.781L150.656 115.906L145.312 92.25C144.906 95.5938 144.5 98.9063 144.094 102.25C144.562 105.281 145.063 108.281 145.531 111.313L93.8437 130.406C84.0937 115.312 74.375 100.25 64.625 85.1562C62.7188 86.0938 60.7812 87.0312 58.8438 87.9688Z" fill="#6EAB05"/>
  <path d="M54.7188 83.1562C39.2812 92.75 23.8125 102.344 8.375 111.938C9.71875 114.5 11.0938 117.062 12.4375 119.594C28.5 108.594 44.5625 97.625 60.5937 86.625C58.625 85.4688 56.6562 84.3125 54.7188 83.1562Z" fill="#6EAB05"/>
  <path d="M59.5 92.625C63.1071 92.625 66.0313 89.7009 66.0313 86.0937C66.0313 82.4866 63.1071 79.5625 59.5 79.5625C55.8929 79.5625 52.9688 82.4866 52.9688 86.0937C52.9688 89.7009 55.8929 92.625 59.5 92.625Z" fill="#6EAB05"/>
  <path d="M53.7187 83.75C53.7812 83.5 53.4687 83.25 53.2812 83.5C52.6875 84.2188 52.5312 85.3125 52.5312 86.2188C52.5312 87.1875 52.7188 88.125 53.1562 89C53.2812 89.2813 53.75 89.0938 53.6562 88.7813C52.6875 86.1563 53.5625 84.5938 53.7187 83.75Z" fill="#064D01"/>
  <path d="M64.7501 87.7498C64.3751 88.4686 64.3751 88.9998 63.6876 90.0311C63.2188 90.7186 62.5938 91.3123 61.9063 91.7811C61.5938 91.9998 61.8751 92.4998 62.2188 92.3123C63.4688 91.6248 64.4063 90.5623 64.9376 89.2811C65.1251 88.8436 65.2813 88.4061 65.2501 87.9061C65.2188 87.6248 64.8751 87.4998 64.7501 87.7498Z" fill="#064D01"/>
  <path d="M50.7187 85.4998C50.5312 85.156 50.0625 85.5935 49.6562 85.8435C49.3437 86.0623 49.0625 86.2498 47.5937 87.281C47.4687 87.3748 47.4062 87.4998 47.5 87.656C47.5625 87.781 47.75 87.8435 47.875 87.7498C49.375 86.7498 49.6562 86.5623 49.9687 86.3435C50.2812 86.156 50.9062 85.8435 50.7187 85.4998Z" fill="#064D01"/>
  <path d="M68.0312 82.7188C67.1562 70.0938 66.9062 66.0625 66.4687 61.9062C66.4375 61.625 66.0312 61.625 66.0312 61.9062C66.2812 67.6562 66.7187 72.5625 67.4062 81.7813C67.4687 82.5625 67.4062 83.4375 67.625 84.1875C67.6875 84.4375 68.0312 84.375 68.0625 84.125C68.125 83.6563 68.0625 83.1875 68.0312 82.7188Z" fill="#D7FF94"/>
  <path d="M132.5 36.3127C129.875 19.1252 109.344 8.25018 90.0937 12.6564C85.2187 13.7814 77.3437 15.5939 71.7812 22.8127C65.7187 30.6877 66.4062 39.7814 66.6562 42.9377C66.8437 45.5627 67.3437 52.1877 71.75 58.0627C80.9062 70.4064 98.875 68.5627 100.031 68.4377C99.125 71.9689 97.5937 73.9689 96.375 75.1564C94.2812 77.1877 91.2187 78.5627 91.5 79.2502C91.5625 79.4377 91.8437 79.5002 92 79.5002C101.125 80.2814 110.094 75.7189 114.625 67.1252C127.437 61.8439 134.312 48.3439 132.5 36.3127Z" fill="#FFAA00"/>
  <path d="M96.9062 50.0938C96.0625 47 97.4687 43.4688 101.125 39.5625C103.687 36.8125 106.844 34.3438 106.344 30.8438C105.906 27.7812 103.031 25.8125 100 26.5C97.0312 27.1875 96.125 30.125 95.25 33.9063C94.7812 35.875 92.2812 36.1563 91.1562 34.625C89.875 32.8438 89.4375 30.6875 89.9687 28.4063C90.625 25.5 92.8125 22.6563 95.5 21.1875C97.1562 20.2813 99.0625 19.8125 101.031 19.8125C110.906 19.8125 115.906 30.7813 110.25 38.4063C108.625 40.5938 106.531 42.2188 104.562 43.9063C102.344 45.8125 101.187 47.5625 100.437 50.0938C99.9062 51.875 97.375 51.8438 96.9062 50.0938Z" fill="#FF6A00"/>
  <path d="M95.3437 58.1564C94.8749 55.6251 97.3749 52.9689 100.344 53.7189C102.312 53.9376 103.719 55.9376 103.375 57.7814C103.375 58.0939 103.312 58.3751 103.25 58.6876C103.219 58.8126 103.25 58.6876 102.906 59.5626C102.375 60.5939 101.312 61.3126 100.375 61.5314C97.7187 62.1251 95.4999 60.2189 95.3437 58.1564Z" fill="#FF6A00"/>
  <path d="M132.062 34.5316C131.969 34.2191 131.531 34.3441 131.594 34.6566C133.469 44.4691 130.25 54.4066 122.281 60.8129C120.781 62.0316 120.187 62.2191 119.656 62.8753C119.5 63.0941 119.625 63.4066 119.937 63.3441C120.937 63.1253 121.781 62.3129 122.562 61.7191C130.937 55.0629 134.5 44.2191 132.062 34.5316Z" fill="#064D01"/>
  <path d="M124.75 21.875C123.781 20.3125 122.125 18.8437 120.219 18.0312C120.125 18 119.656 17.7812 119.562 17.7812C119.5 17.7812 119.406 17.8125 119.375 17.8125C119.156 17.7812 119.125 18.0937 119.281 18.1875C119.406 18.4062 119.781 18.4687 119.969 18.5625C123.281 20.0625 124.344 22.7188 124.719 23.0625C124.937 23.2812 125.25 23.0625 125.219 22.7812C125.125 22.4687 124.906 22.1562 124.75 21.875Z" fill="#064D01"/>
  <path d="M71.7813 54.1878C70.9376 52.1566 69.8126 50.7816 68.8438 47.0003C67.8751 43.1566 68.2501 41.3441 68.1251 39.2191C68.0938 38.9066 67.6251 38.8128 67.5313 39.1253C67.2188 40.3753 67.2501 41.8128 67.3438 43.0941C67.5313 45.8128 68.1251 48.4691 69.1876 50.9691C69.7188 52.2191 70.3126 53.4691 71.2188 54.4691C71.4688 54.7191 71.9063 54.5003 71.7813 54.1878Z" fill="#064D01"/>
  <path d="M143.531 86.4377C143.469 86.219 143.156 86.2502 143.094 86.4377C142.844 87.2815 142.875 88.2502 142.812 89.1252C142.5 95.6877 142.219 101.281 142.219 107.844C142.219 108.125 142.625 108.125 142.656 107.844C142.969 103.813 143.25 99.0627 143.5 91.7502C143.625 87.6877 143.719 87.2502 143.531 86.4377Z" fill="#064D01"/>
  <path d="M41.5312 137.188C41.1562 136.938 40.7187 136.907 40.3124 136.844C39.8124 136.75 39.2812 136.657 38.7812 136.563C32.9062 135.5 29.0624 135.625 27.1874 132.313C25.9687 130.157 25.8749 127.719 23.8437 121.125C23.7499 120.875 23.3749 120.969 23.4374 121.25C23.8437 123.282 24.3437 125.282 24.8437 127.313C25.2812 129 25.5937 130.782 26.3749 132.344C28.0312 135.782 31.2812 136.125 34.8124 136.719C38.5312 137.344 37.4062 137.157 39.9062 137.532C40.4374 137.594 40.9999 137.782 41.5312 137.625C41.6562 137.532 41.6874 137.282 41.5312 137.188Z" fill="#064D01"/>
  <path d="M20.1874 97.5003C20.1874 97.4691 19.2187 91.5003 18.9999 90.3128C18.9062 89.8441 18.8749 89.3441 18.6249 88.9378C18.5312 88.8128 18.3124 88.8128 18.2812 88.9691C18.1562 89.4378 18.1874 89.5316 18.9999 94.5941C19.7187 99.0941 19.7187 99.5003 20.0312 100.407C20.1249 100.688 20.5937 100.657 20.5937 100.344C20.5312 99.3753 20.3124 98.4066 20.1874 97.5003Z" fill="#064D01"/>
  <path d="M144.5 77.0319C143.594 77.2506 143.656 77.3131 138.656 79.1256L121.312 85.4381C115.937 87.4069 115.781 87.4069 114.875 87.8756C114.687 87.9694 114.812 88.2506 115 88.2194C115.875 88.0319 143.937 77.8756 144.687 77.5319C144.969 77.3756 144.781 76.9694 144.5 77.0319Z" fill="#064D01"/>
  <path d="M27.4374 80.1561C27.0312 79.9999 26.9999 80.0311 24.4687 79.4374L15.5312 77.4999C15.2187 77.4374 15.0624 77.9061 15.4062 77.9999L24.4062 80.0936C25.3749 80.3124 26.3749 80.6561 27.3749 80.7186C27.7187 80.7186 27.7187 80.2811 27.4374 80.1561Z" fill="#064D01"/>
  <path d="M144.906 12.2189C142.875 14.3127 141 16.5627 139.094 18.7814C137.188 20.9689 135.219 23.1252 133.5 25.4377C133.281 25.7502 133.781 26.1252 134.031 25.8439C136.094 23.8127 137.938 21.5627 139.813 19.3752C141.688 17.1877 143.656 15.0314 145.438 12.7502C145.719 12.3752 145.25 11.8439 144.906 12.2189Z" fill="#064D01"/>
  <path d="M146.844 35.375C146.219 35.375 145.625 35.5 145.031 35.625C143.5 35.9375 140.937 36.5312 139.437 36.9375C138.844 37.0938 139.094 37.9375 139.687 37.8438C140.937 37.625 142.187 37.3438 143.437 37.0938C144.625 36.8438 145.937 36.625 147.062 36.0938C147.375 35.9063 147.187 35.375 146.844 35.375Z" fill="#064D01"/>
  <path d="M68.6874 25.3444C67.8436 24.1881 67.2811 23.6881 62.7499 19.0319C60.7186 16.9381 58.6561 14.8756 56.5936 12.7819C56.2186 12.4069 55.6561 12.9694 56.0311 13.3444C60.7811 18.4069 60.5624 18.1881 64.9374 22.7506C65.9374 23.8131 66.9061 24.9069 68.0624 25.8131C68.4061 26.0631 68.9999 25.7194 68.6874 25.3444Z" fill="#064D01"/>
  <path d="M62.8126 34.6873C62.3751 34.406 62.4376 34.3748 55.9063 32.781C55.5938 32.6873 55.2813 32.5935 54.9376 32.6873C54.6563 32.781 54.5313 33.156 54.7501 33.3748C55.0001 33.6248 55.3126 33.656 55.6251 33.7498C58.1251 34.4373 57.6251 34.3123 60.5626 35.0623C61.2188 35.2498 61.9063 35.4685 62.5938 35.4373C63.0001 35.406 63.1563 34.906 62.8126 34.6873Z" fill="#064D01"/>
  <path d="M61.8751 46.1876C59.9376 47.2189 57.9688 48.2501 56.0626 49.3439C54.1251 50.4064 52.1563 51.4064 50.3438 52.6564C49.9688 52.9376 50.2813 53.4689 50.7188 53.2814C52.7501 52.4064 54.6251 51.2501 56.5626 50.1564C58.5001 49.0939 60.4063 47.9689 62.3126 46.8751C62.7188 46.6251 62.3126 45.9376 61.8751 46.1876Z" fill="#064D01"/>
  <path d="M143.375 57.7188C142.656 56.9376 140.531 55.6251 139.625 55.0938C138.312 54.2813 137 53.4688 135.625 52.7188C134.969 52.3751 134.469 53.2813 135.062 53.6876C136.281 54.5313 139.687 56.6251 141 57.3438C141.656 57.6876 142.344 58.0938 143.062 58.2813C143.375 58.3438 143.594 57.9376 143.375 57.7188Z" fill="#064D01"/>
</svg>
