<svg xmlns="http://www.w3.org/2000/svg" width="17" height="17" viewBox="0 0 17 17" fill="none">
  <path d="M4.54901 16.4865L4.84357 16.4041C5.1269 16.325 5.2924 16.0311 5.21323 15.7477L1.84542 3.69565C1.7979 3.52557 1.68475 3.38133 1.53088 3.29467C1.377 3.20801 1.19501 3.18603 1.02492 3.23356L0.986882 3.24418C0.632682 3.34314 0.425771 3.7105 0.52473 4.0647L3.89262 16.1168C3.97179 16.4001 4.26567 16.5656 4.54901 16.4865Z" fill="currentColor"/>
  <path d="M16.4088 8.06439C15.3408 7.53186 14.3528 6.85213 13.4736 6.04508C13.3997 5.97744 13.3708 5.8736 13.3991 5.7775C13.8348 4.12955 14.1583 2.45399 14.3674 0.762324C14.4005 0.480945 14.2488 0.398186 14.0888 0.59129C10.9495 4.34577 5.51777 -0.0956071 2.28467 3.31681C2.32348 3.38948 2.35402 3.46628 2.3757 3.54577L4.56053 11.3692C7.79915 7.99819 13.2116 12.412 16.3454 8.66577C16.5054 8.47267 16.5357 8.11957 16.4088 8.06439Z" fill="currentColor"/>
</svg>
