<svg xmlns="http://www.w3.org/2000/svg" width="16" height="17" viewBox="0 0 16 17" fill="none">
  <path d="M13.9801 1.16602H12.0201C11.1734 1.16602 10.6667 1.67268 10.6667 2.51935V4.47935C10.6667 5.32602 11.1734 5.83268 12.0201 5.83268H13.9801C14.8267 5.83268 15.3334 5.32602 15.3334 4.47935V2.51935C15.3334 1.67268 14.8267 1.16602 13.9801 1.16602ZM14.1267 3.37268C14.0467 3.45268 13.9401 3.49268 13.8334 3.49268C13.7267 3.49268 13.6201 3.45268 13.5401 3.37268L13.4201 3.25268V4.74602C13.4201 4.97935 13.2334 5.16602 13.0001 5.16602C12.7667 5.16602 12.5801 4.97935 12.5801 4.74602V3.25268L12.4601 3.37268C12.3001 3.53268 12.0334 3.53268 11.8734 3.37268C11.7134 3.21268 11.7134 2.94602 11.8734 2.78602L12.7067 1.95268C12.7401 1.91935 12.7867 1.89268 12.8334 1.87268C12.8467 1.86602 12.8601 1.86602 12.8734 1.85935C12.9067 1.84602 12.9401 1.83935 12.9801 1.83935C12.9934 1.83935 13.0067 1.83935 13.0201 1.83935C13.0667 1.83935 13.1067 1.84602 13.1534 1.86602C13.1601 1.86602 13.1601 1.86602 13.1667 1.86602C13.2134 1.88602 13.2534 1.91268 13.2867 1.94602C13.2934 1.95268 13.2934 1.95268 13.3001 1.95268L14.1334 2.78602C14.2934 2.94602 14.2934 3.21268 14.1267 3.37268Z" fill="currentColor"/>
  <path d="M6 7.41943C6.87629 7.41943 7.58666 6.70905 7.58666 5.83276C7.58666 4.95647 6.87629 4.24609 6 4.24609C5.12371 4.24609 4.41333 4.95647 4.41333 5.83276C4.41333 6.70905 5.12371 7.41943 6 7.41943Z" fill="currentColor"/>
  <path d="M13.9799 5.83398H13.6666V8.90732L13.5799 8.83398C13.0599 8.38732 12.2199 8.38732 11.6999 8.83398L8.92659 11.214C8.40659 11.6607 7.56659 11.6607 7.04659 11.214L6.81992 11.0273C6.34659 10.614 5.59325 10.574 5.05992 10.934L2.56659 12.6073C2.41992 12.234 2.33325 11.8007 2.33325 11.294V5.70732C2.33325 3.82732 3.32659 2.83398 5.20659 2.83398H10.6666V2.52065C10.6666 2.25398 10.7133 2.02732 10.8199 1.83398H5.20659C2.77992 1.83398 1.33325 3.28065 1.33325 5.70732V11.294C1.33325 12.0207 1.45992 12.654 1.70659 13.1873C2.27992 14.454 3.50659 15.1673 5.20659 15.1673H10.7933C13.2199 15.1673 14.6666 13.7207 14.6666 11.294V5.68065C14.4733 5.78732 14.2466 5.83398 13.9799 5.83398Z" fill="currentColor"/>
</svg>
