<svg width="791" height="461" viewBox="0 0 791 461" fill="none" xmlns="http://www.w3.org/2000/svg">
<g filter="url(#filter0_f_10_209)">
<circle cx="647.113" cy="226.255" r="60.3774" transform="rotate(16.8826 647.113 226.255)" fill="#FC6F13"/>
</g>
<g filter="url(#filter1_f_10_209)">
<ellipse cx="297" cy="239.175" rx="176.778" ry="45.5247" fill="#FC6F13" fill-opacity="0.5"/>
</g>
<g filter="url(#filter2_di_10_209)">
<path d="M726.531 232.835C729.767 195.903 706.722 160.348 669.711 149.116C645.724 141.836 620.668 146.271 601.057 159.757C569.472 149.586 549.148 150.618 540.937 163.039C538.767 166.299 536.565 171.87 538.41 179.87C541.16 191.814 552.107 205.461 566.588 218.759C563.34 255.939 586.848 291.174 623.265 302.226C646.879 309.393 671.636 305.463 691.741 291.657C693.004 292.072 694.288 292.524 695.551 292.908C720.658 300.527 743.122 301.879 752.011 288.327C760.734 275.319 751.81 256.141 726.531 232.835ZM629.073 283.088C606.846 276.343 591.133 257.602 587.277 235.875C599.344 244.972 612.201 253.43 624.174 260.46C636.209 267.53 651.248 275.407 666.82 282.181C654.859 286.473 641.761 286.939 629.073 283.088ZM634.301 243.208C612.935 230.662 596.645 218.643 584.68 208.209C583.984 207.371 583.204 206.601 582.262 206.022C564.17 189.747 556.862 177.674 557.493 174.219C558.638 173.166 566.248 171.295 584.075 175.671C582.93 177.1 581.662 178.387 580.612 179.918C577.477 184.464 578.607 190.69 583.152 193.825C587.711 196.985 593.924 195.83 597.059 191.284C600.063 186.929 603.673 183.228 607.563 179.915C608.852 179.282 609.93 178.313 610.841 177.169C625.748 166.236 645.274 162.6 663.903 168.254C688.752 175.796 705.167 197.906 706.659 222.29C702.977 224.851 698.303 225.721 693.892 224.382C685.979 221.981 681.494 213.587 683.896 205.673C685.499 200.391 682.513 194.803 677.232 193.2C671.95 191.597 666.362 194.583 664.759 199.865C659.154 218.333 669.617 237.916 688.084 243.52C693.279 245.097 698.645 245.357 703.8 244.518C703.304 246.049 702.805 247.591 702.173 249.019C699.931 254.065 702.204 259.97 707.25 262.212C707.637 262.382 708.021 262.529 708.422 262.651C713.178 264.095 718.379 261.796 720.452 257.137C720.687 256.603 720.848 256.003 721.067 255.453C733.436 268.55 735.594 275.966 735.456 277.147C729.654 282.388 688.713 275.156 634.301 243.208Z" fill="url(#paint0_radial_10_209)"/>
<path d="M726.531 232.835C729.767 195.903 706.722 160.348 669.711 149.116C645.724 141.836 620.668 146.271 601.057 159.757C569.472 149.586 549.148 150.618 540.937 163.039C538.767 166.299 536.565 171.87 538.41 179.87C541.16 191.814 552.107 205.461 566.588 218.759C563.34 255.939 586.848 291.174 623.265 302.226C646.879 309.393 671.636 305.463 691.741 291.657C693.004 292.072 694.288 292.524 695.551 292.908C720.658 300.527 743.122 301.879 752.011 288.327C760.734 275.319 751.81 256.141 726.531 232.835ZM629.073 283.088C606.846 276.343 591.133 257.602 587.277 235.875C599.344 244.972 612.201 253.43 624.174 260.46C636.209 267.53 651.248 275.407 666.82 282.181C654.859 286.473 641.761 286.939 629.073 283.088ZM634.301 243.208C612.935 230.662 596.645 218.643 584.68 208.209C583.984 207.371 583.204 206.601 582.262 206.022C564.17 189.747 556.862 177.674 557.493 174.219C558.638 173.166 566.248 171.295 584.075 175.671C582.93 177.1 581.662 178.387 580.612 179.918C577.477 184.464 578.607 190.69 583.152 193.825C587.711 196.985 593.924 195.83 597.059 191.284C600.063 186.929 603.673 183.228 607.563 179.915C608.852 179.282 609.93 178.313 610.841 177.169C625.748 166.236 645.274 162.6 663.903 168.254C688.752 175.796 705.167 197.906 706.659 222.29C702.977 224.851 698.303 225.721 693.892 224.382C685.979 221.981 681.494 213.587 683.896 205.673C685.499 200.391 682.513 194.803 677.232 193.2C671.95 191.597 666.362 194.583 664.759 199.865C659.154 218.333 669.617 237.916 688.084 243.52C693.279 245.097 698.645 245.357 703.8 244.518C703.304 246.049 702.805 247.591 702.173 249.019C699.931 254.065 702.204 259.97 707.25 262.212C707.637 262.382 708.021 262.529 708.422 262.651C713.178 264.095 718.379 261.796 720.452 257.137C720.687 256.603 720.848 256.003 721.067 255.453C733.436 268.55 735.594 275.966 735.456 277.147C729.654 282.388 688.713 275.156 634.301 243.208Z" fill="url(#paint1_linear_10_209)"/>
<path d="M726.531 232.835C729.767 195.903 706.722 160.348 669.711 149.116C645.724 141.836 620.668 146.271 601.057 159.757C569.472 149.586 549.148 150.618 540.937 163.039C538.767 166.299 536.565 171.87 538.41 179.87C541.16 191.814 552.107 205.461 566.588 218.759C563.34 255.939 586.848 291.174 623.265 302.226C646.879 309.393 671.636 305.463 691.741 291.657C693.004 292.072 694.288 292.524 695.551 292.908C720.658 300.527 743.122 301.879 752.011 288.327C760.734 275.319 751.81 256.141 726.531 232.835ZM629.073 283.088C606.846 276.343 591.133 257.602 587.277 235.875C599.344 244.972 612.201 253.43 624.174 260.46C636.209 267.53 651.248 275.407 666.82 282.181C654.859 286.473 641.761 286.939 629.073 283.088ZM634.301 243.208C612.935 230.662 596.645 218.643 584.68 208.209C583.984 207.371 583.204 206.601 582.262 206.022C564.17 189.747 556.862 177.674 557.493 174.219C558.638 173.166 566.248 171.295 584.075 175.671C582.93 177.1 581.662 178.387 580.612 179.918C577.477 184.464 578.607 190.69 583.152 193.825C587.711 196.985 593.924 195.83 597.059 191.284C600.063 186.929 603.673 183.228 607.563 179.915C608.852 179.282 609.93 178.313 610.841 177.169C625.748 166.236 645.274 162.6 663.903 168.254C688.752 175.796 705.167 197.906 706.659 222.29C702.977 224.851 698.303 225.721 693.892 224.382C685.979 221.981 681.494 213.587 683.896 205.673C685.499 200.391 682.513 194.803 677.232 193.2C671.95 191.597 666.362 194.583 664.759 199.865C659.154 218.333 669.617 237.916 688.084 243.52C693.279 245.097 698.645 245.357 703.8 244.518C703.304 246.049 702.805 247.591 702.173 249.019C699.931 254.065 702.204 259.97 707.25 262.212C707.637 262.382 708.021 262.529 708.422 262.651C713.178 264.095 718.379 261.796 720.452 257.137C720.687 256.603 720.848 256.003 721.067 255.453C733.436 268.55 735.594 275.966 735.456 277.147C729.654 282.388 688.713 275.156 634.301 243.208Z" fill="url(#paint2_radial_10_209)"/>
<path d="M584.139 208.738L584.1 208.691C583.433 207.889 582.714 207.186 581.867 206.665L581.808 206.629L581.757 206.583C572.682 198.42 566.294 191.295 562.247 185.758C560.224 182.992 558.776 180.608 557.87 178.678C557.416 177.713 557.092 176.848 556.902 176.094C556.715 175.351 556.644 174.665 556.75 174.083L556.796 173.834L556.982 173.663C557.221 173.443 557.56 173.258 557.948 173.1C558.349 172.937 558.852 172.783 559.459 172.649C560.674 172.38 562.343 172.181 564.519 172.154C568.872 172.101 575.296 172.739 584.255 174.938L585.403 175.22L584.664 176.142C584.237 176.676 583.788 177.195 583.351 177.701C583.193 177.885 583.036 178.066 582.882 178.247C582.295 178.933 581.736 179.613 581.234 180.345L581.233 180.347C578.334 184.551 579.38 190.307 583.581 193.204L583.582 193.205C587.796 196.126 593.538 195.059 596.437 190.856L596.437 190.856C599.489 186.432 603.148 182.683 607.073 179.34L607.145 179.279L607.23 179.237C608.394 178.666 609.389 177.78 610.251 176.698L610.314 176.62L610.395 176.56C625.491 165.489 645.263 161.808 664.122 167.532C689.282 175.168 705.901 197.554 707.412 222.244L707.438 222.667L707.09 222.909C703.229 225.595 698.317 226.514 693.673 225.104C685.361 222.582 680.651 213.766 683.174 205.454C684.656 200.57 681.895 195.404 677.012 193.922C672.13 192.44 666.963 195.201 665.481 200.084C659.997 218.154 670.235 237.315 688.303 242.798C693.381 244.339 698.63 244.594 703.679 243.773L704.899 243.574L704.518 244.75L704.51 244.774C704.019 246.292 703.51 247.862 702.863 249.324L702.863 249.325C700.79 253.99 702.89 259.447 707.554 261.521C707.92 261.682 708.275 261.818 708.642 261.929C713.036 263.263 717.844 261.139 719.761 256.833L584.139 208.738ZM584.139 208.738L584.184 208.778M584.139 208.738L584.184 208.778M584.184 208.778C596.187 219.246 612.516 231.292 633.918 243.858C661.172 259.861 685.068 269.682 702.897 274.848C711.809 277.431 719.223 278.855 724.794 279.3C727.578 279.523 729.924 279.503 731.776 279.252C733.601 279.004 735.064 278.518 735.961 277.707L736.172 277.517L736.205 277.235C736.237 276.966 736.198 276.626 736.124 276.262C736.045 275.879 735.914 275.407 735.717 274.85C735.323 273.734 734.66 272.246 733.608 270.396C731.504 266.694 727.832 261.518 721.616 254.935L720.804 254.075M584.184 208.778L720.804 254.075M720.804 254.075L720.366 255.174M720.804 254.075L720.366 255.174M720.366 255.174C720.262 255.434 720.171 255.705 720.087 255.953M720.366 255.174L720.087 255.953M720.087 255.953L720.051 256.058M720.087 255.953L720.051 256.058M720.051 256.058C719.954 256.342 719.865 256.597 719.762 256.83L720.051 256.058ZM725.779 232.77L725.747 233.139L726.02 233.39C738.628 245.014 747.096 255.556 751.336 264.759C755.568 273.944 755.551 281.693 751.384 287.906L751.38 287.913C747.124 294.401 739.576 297.404 729.832 297.803C720.089 298.201 708.29 295.985 695.77 292.185C694.936 291.932 694.101 291.651 693.256 291.367C692.832 291.224 692.406 291.081 691.976 290.94L691.621 290.823L691.313 291.035C671.397 304.712 646.878 308.604 623.484 301.504C587.409 290.556 564.123 255.649 567.34 218.825L567.372 218.455L567.098 218.204C559.88 211.575 553.559 204.873 548.705 198.356C543.847 191.832 540.488 185.531 539.146 179.701L539.146 179.701C537.353 171.931 539.493 166.571 541.566 163.457L541.567 163.455C545.496 157.511 552.362 154.211 562.272 153.68C572.195 153.147 585.072 155.402 600.826 160.475L601.179 160.589L601.485 160.379C620.911 147.019 645.73 142.627 669.492 149.838C706.155 160.965 728.984 196.187 725.779 232.77ZM587.731 235.273L586.198 234.117L586.534 236.007C590.438 258.003 606.345 276.979 628.854 283.81C641.699 287.709 654.964 287.237 667.075 282.892L668.867 282.249L667.121 281.489C651.58 274.728 636.568 266.866 624.556 259.81L624.556 259.81C612.606 252.793 599.774 244.351 587.731 235.273Z" stroke="url(#paint3_linear_10_209)" stroke-width="1.50943" style="mix-blend-mode:soft-light"/>
</g>
<defs>
<filter id="filter0_f_10_209" x="472.908" y="52.05" width="348.41" height="348.41" filterUnits="userSpaceOnUse" color-interpolation-filters="sRGB">
<feFlood flood-opacity="0" result="BackgroundImageFix"/>
<feBlend mode="normal" in="SourceGraphic" in2="BackgroundImageFix" result="shape"/>
<feGaussianBlur stdDeviation="56.9057" result="effect1_foregroundBlur_10_209"/>
</filter>
<filter id="filter1_f_10_209" x="0.222656" y="73.6504" width="593.556" height="331.049" filterUnits="userSpaceOnUse" color-interpolation-filters="sRGB">
<feFlood flood-opacity="0" result="BackgroundImageFix"/>
<feBlend mode="normal" in="SourceGraphic" in2="BackgroundImageFix" result="shape"/>
<feGaussianBlur stdDeviation="60" result="effect1_foregroundBlur_10_209"/>
</filter>
<filter id="filter2_di_10_209" x="513.191" y="124.129" width="266.602" height="209.158" filterUnits="userSpaceOnUse" color-interpolation-filters="sRGB">
<feFlood flood-opacity="0" result="BackgroundImageFix"/>
<feColorMatrix in="SourceAlpha" type="matrix" values="0 0 0 0 0 0 0 0 0 0 0 0 0 0 0 0 0 0 127 0" result="hardAlpha"/>
<feOffset dy="3.01887"/>
<feGaussianBlur stdDeviation="12.2642"/>
<feComposite in2="hardAlpha" operator="out"/>
<feColorMatrix type="matrix" values="0 0 0 0 0.635294 0 0 0 0 0.996078 0 0 0 0 0.0117647 0 0 0 0.27 0"/>
<feBlend mode="normal" in2="BackgroundImageFix" result="effect1_dropShadow_10_209"/>
<feBlend mode="normal" in="SourceGraphic" in2="effect1_dropShadow_10_209" result="shape"/>
<feColorMatrix in="SourceAlpha" type="matrix" values="0 0 0 0 0 0 0 0 0 0 0 0 0 0 0 0 0 0 127 0" result="hardAlpha"/>
<feOffset dy="-0.754717"/>
<feGaussianBlur stdDeviation="2.26415"/>
<feComposite in2="hardAlpha" operator="arithmetic" k2="-1" k3="1"/>
<feColorMatrix type="matrix" values="0 0 0 0 1 0 0 0 0 0.99172 0 0 0 0 0.50302 0 0 0 1 0"/>
<feBlend mode="normal" in2="shape" result="effect2_innerShadow_10_209"/>
</filter>
<radialGradient id="paint0_radial_10_209" cx="0" cy="0" r="1" gradientUnits="userSpaceOnUse" gradientTransform="translate(669.733 149.123) rotate(106.883) scale(160 222.081)">
<stop offset="0.668701" stop-color="white"/>
<stop offset="1" stop-color="#ffb872"/>
</radialGradient>
<linearGradient id="paint1_linear_10_209" x1="531.672" y1="190.826" x2="761.328" y2="260.524" gradientUnits="userSpaceOnUse">
<stop stop-color="#FC6F13"/>
<stop offset="1" stop-color="#fe9039"/>
</linearGradient>
<radialGradient id="paint2_radial_10_209" cx="0" cy="0" r="1" gradientUnits="userSpaceOnUse" gradientTransform="translate(666.282 150.165) rotate(82.384) scale(173.632 356.249)">
<stop stop-color="white"/>
<stop offset="0.509727" stop-color="white" stop-opacity="0"/>
</radialGradient>
<linearGradient id="paint3_linear_10_209" x1="641.277" y1="129.839" x2="686.098" y2="321.296" gradientUnits="userSpaceOnUse">
<stop stop-color="white" stop-opacity="0"/>
<stop offset="1" stop-color="white"/>
</linearGradient>
</defs>
</svg>
