<svg xmlns="http://www.w3.org/2000/svg" width="20" height="20" viewBox="0 0 20 20" fill="none">
  <path fill-rule="evenodd" clip-rule="evenodd" d="M15.2083 4.875C14.375 4.04167 13.0417 4.04167 12.2083 4.875L10.875 6.20833L9.625 5.04167L11.0417 3.625C12.5417 2.125 14.875 2.125 16.375 3.625L16.4583 3.70833C17.9583 5.20833 17.9583 7.54167 16.4583 9.04167L15.0417 10.4583L13.875 9.29167L15.2917 7.875C16.125 7.04167 16.125 5.79167 15.2083 4.875Z" fill="currentColor"/>
  <path fill-rule="evenodd" clip-rule="evenodd" d="M4.95833 15.2083C5.79167 16.0417 7.125 16.0417 7.95833 15.2083L9.375 13.7917L10.4583 15.0417L9.04167 16.4583C7.54167 17.9583 5.20833 17.9583 3.70833 16.4583L3.625 16.375C2.125 14.875 2.125 12.5417 3.625 11.0417L5.04167 9.625L6.20833 10.7917L4.79167 12.2083C3.95833 13.0417 3.95833 14.2917 4.95833 15.2083Z" fill="currentColor"/>
  <path fill-rule="evenodd" clip-rule="evenodd" d="M7.04167 5.70898L14.2917 13.0423L13.125 14.209L5.875 6.87565L7.04167 5.70898Z" fill="currentColor"/>
</svg>
