<svg xmlns="http://www.w3.org/2000/svg" width="120" height="121" viewBox="0 0 120 121" fill="none">
  <path d="M120 60.5C120 93.6371 93.1371 120.5 60 120.5C26.8629 120.5 0 93.6371 0 60.5C0 27.3629 26.8629 0.5 60 0.5C93.1371 0.5 120 27.3629 120 60.5ZM9.6 60.5C9.6 88.3352 32.1648 110.9 60 110.9C87.8352 110.9 110.4 88.3352 110.4 60.5C110.4 32.6648 87.8352 10.1 60 10.1C32.1648 10.1 9.6 32.6648 9.6 60.5Z" fill="white" fill-opacity="0.05"/>
  <path d="M115.2 60.5C117.851 60.5 120.02 58.3475 119.808 55.7051C119.308 49.4682 117.835 43.3378 115.433 37.539C113.031 31.7402 109.738 26.3635 105.681 21.5998C103.963 19.5815 100.907 19.5932 99.0323 21.4677C97.1578 23.3422 97.1779 26.368 98.8657 28.4123C102.048 32.2663 104.644 36.5791 106.564 41.2127C108.483 45.8464 109.696 50.7322 110.172 55.7072C110.424 58.3462 112.549 60.5 115.2 60.5Z" fill="#BDFE1C"/>
</svg>
