<svg width="120" height="44" viewBox="0 0 120 44" fill="none" xmlns="http://www.w3.org/2000/svg">
<path fill-rule="evenodd" clip-rule="evenodd" d="M22.6797 43.9733C10.5547 43.9733 0.72533 34.144 0.72533 22.0189C0.72533 9.89378 10.5547 0.0644531 22.6797 0.0644531C27.2873 0.0644531 31.5634 1.48383 35.0945 3.90919L34.3741 4.93962C31.047 2.65714 27.0193 1.3216 22.6797 1.3216C11.249 1.3216 1.98248 10.5881 1.98248 22.0189C1.98248 33.4496 11.249 42.7161 22.6797 42.7161C34.1105 42.7161 43.377 33.4496 43.377 22.0189C43.377 16.6389 41.3244 11.7384 37.9595 8.0578L38.6311 6.93399C42.3522 10.8675 44.6342 16.1767 44.6342 22.0189C44.6342 34.144 34.8048 43.9733 22.6797 43.9733Z" fill="#BDFE1C"/>
<path d="M32.0784 10.1617C34.1092 7.8656 39.2666 1.82838 39.3961 1.70853L36.9912 6.05347L32.0784 10.1617Z" fill="#BDFE1C"/>
<path d="M33.7524 11.8022L28.3176 14.5406L36.4637 7.32134L33.7524 11.8022Z" fill="#BDFE1C"/>
<path d="M28.8865 18.5338L26.7891 16.7472L32.7488 13.1772L28.8865 18.5338Z" fill="#BDFE1C"/>
<path fill-rule="evenodd" clip-rule="evenodd" d="M12.0115 6.09329C18.6781 1.61897 27.1388 1.88722 33.4099 6.1141C33.0897 6.53053 32.7754 6.97926 32.4737 7.45519C26.907 3.58958 19.3156 3.30008 13.3487 7.30476C8.38309 10.6374 5.7434 16.138 5.84351 21.7034C5.97259 21.4318 6.14425 21.1645 6.36665 20.9057C9.86897 17.1961 15.9208 17.3006 17.9431 17.3979C12.6044 19.2975 9.3119 21.7406 6.7546 26.8815C6.76617 26.9152 6.77784 26.9488 6.78962 26.9824C6.51296 27.4192 6.24749 27.8869 5.99918 28.3803C5.72098 28.9331 5.48151 29.4839 5.28164 30.0218C1.40145 21.6226 4.08408 11.4137 12.0115 6.09329ZM38.6025 11.3259C38.1586 10.6645 37.6807 10.0397 37.1727 9.45204C37.0287 9.70816 36.8758 9.96558 36.7143 10.223C36.5467 10.4903 36.3751 10.7492 36.2005 10.9988C36.434 11.3008 36.659 11.6126 36.8748 11.9343C41.0804 18.2006 40.5501 26.2584 36.1156 31.8814L34.0475 32.0687C31.0515 32.2629 28.1935 30.6392 27.1466 28.3982C26.6192 27.2698 26.543 27.2066 25.7127 27.2085C23.5946 27.2131 22.0156 26.1663 22.0195 24.76C22.022 23.9265 22.0254 23.9279 22.4048 24.9061C22.8467 26.0454 23.7451 26.5173 25.8032 26.6899C27.1735 26.8051 28.2563 27.6098 29.0425 29.0977C29.4598 29.8883 29.6983 30.0689 30.4868 30.1925C31.7279 30.3867 32.7365 29.6902 33.1266 28.3693C33.3832 27.4997 33.2156 26.8851 32.1255 24.7023C31.4054 23.26 30.7785 21.5395 30.7324 20.8794C30.6542 19.7548 30.5309 19.5806 28.7859 18.1289C27.7613 17.2763 26.4753 16.2393 25.9279 15.8244C25.3803 15.4097 24.5535 14.7589 24.0902 14.3786L23.2478 13.6871L23.3814 14.647C23.5007 15.5059 23.7399 15.7824 25.6492 17.2683C27.2738 18.5324 27.8624 19.1444 28.1125 19.8296C28.4233 20.6807 28.3662 20.6525 27.0683 19.3144C26.1274 18.3445 25.3111 17.7631 24.4756 17.4676C23.7231 17.2015 22.5916 16.4334 21.521 15.4621C19.8117 13.9113 19.7859 13.9001 19.7837 14.7124C19.7824 15.1661 20.0297 15.9765 20.3333 16.5139C20.7201 17.1988 20.7476 17.5115 20.4251 17.561C19.4859 17.7042 16.9079 19.5178 15.6101 20.9482C14.1358 22.5731 12.6595 25.6049 11.755 28.866C11.4586 29.9337 10.9403 31.2558 10.6027 31.8042L10.0832 32.6021C10.0809 32.5995 10.0786 32.5969 10.0763 32.5944C9.51796 33.4351 8.92048 34.1497 8.33056 34.6978C12.1071 38.9813 17.5011 41.2402 22.9593 41.1688L23.0577 41.2057C23.0606 41.1927 23.0633 41.1799 23.0661 41.1671C26.6208 41.1008 30.1983 40.0455 33.3699 37.917C42.1577 32.019 44.5005 20.1138 38.6025 11.3259ZM18.4695 37.7757C18.2519 36.7373 17.8232 35.3686 17.2018 33.7519C15.4157 29.1052 15.3823 25.7993 17.0877 22.4535L18.0635 20.5393L16.6815 22.2341C14.4628 24.955 14.115 27.3063 15.1775 32.4072C15.5365 34.1315 15.5922 35.6951 15.4733 36.6766C16.4379 37.1375 17.4416 37.5048 18.4695 37.7757ZM22.5154 38.3362C24.2896 38.3673 26.0781 38.1206 27.8125 37.5829C23.1442 35.4228 19.5211 30.645 19.3847 26.4352C19.2729 22.9904 22.2436 19.7231 24.8592 20.4143C26.8292 20.9349 27.2614 21.9905 25.5738 22.1599C24.4374 22.2738 25.1541 22.7488 26.3701 22.6878L27.3783 22.637L28.9177 24.9516C29.5123 25.8455 29.5386 25.561 29.5457 25.4838C29.5466 25.4739 29.5472 25.4674 29.5486 25.4673C29.5514 25.4669 29.5572 25.4895 29.574 25.5553L29.574 25.5554L29.5863 25.6029C29.6391 25.8078 29.6498 25.8934 29.6524 25.9143L29.6524 25.9143C29.6529 25.9179 29.6531 25.9196 29.6532 25.9196C29.6534 25.9196 29.6534 25.9184 29.6536 25.9162V25.9161C29.6546 25.8995 29.659 25.8269 29.7112 25.7695C30.025 25.4236 29.6961 24.9247 29.3704 24.4305L29.3704 24.4304L29.3703 24.4303C29.3 24.3237 29.2299 24.2174 29.1665 24.1128C27.1358 20.7678 25.974 19.6008 24.3729 19.2965C22.7701 18.9915 21.341 19.609 19.8166 21.2646C16.582 24.7774 16.9271 28.832 21.0628 35.9044C21.4445 36.5571 21.7659 37.089 22.0341 37.5329L22.0342 37.533C22.2191 37.839 22.3787 38.1032 22.5154 38.3362Z" fill="#BDFE1C"/>
<path fill-rule="evenodd" clip-rule="evenodd" d="M114.084 21.9961V37.9961H117.037H119.991V21.9961V5.99609H117.037H114.084V21.9961Z" fill="#BDFE1C"/>
<path d="M95.7637 5.79089C96.1636 5.74608 96.5842 5.69609 96.6985 5.67987C97.1259 5.61904 99.2174 5.70859 99.9181 5.81775C105.099 6.62471 108.645 9.94385 109.732 15.003L109.919 15.8728L109.94 26.9141L109.961 37.9554H106.913H103.865V27.945C103.865 21.5316 103.839 17.6733 103.793 17.2071C103.519 14.4372 102.059 12.5471 99.5924 11.7678C99.0292 11.5899 98.8895 11.5753 97.737 11.5744C96.6652 11.5736 96.4132 11.5956 95.9368 11.7314C93.9791 12.2897 92.5895 13.6177 91.9429 15.548C91.5638 16.6799 91.5853 16.0158 91.5595 27.4168L91.5358 37.9554H88.4898H85.4437L85.4651 26.8782L85.4865 15.8009L85.6433 15.0904C86.1213 12.9257 86.8647 11.3288 88.0982 9.81768C89.8595 7.65983 92.7808 6.12525 95.7637 5.79089Z" fill="#BDFE1C"/>
<path d="M57.0658 27.7389C57.0176 27.2803 56.9924 23.4504 56.9924 16.554V6.06641H60.0372H63.0819L63.1034 16.6768C63.1249 27.2794 63.125 27.2877 63.2734 27.8258C63.5591 28.8612 63.7437 29.2913 64.2078 30.0016C64.7768 30.8724 65.7225 31.6529 66.7012 32.0594C67.5722 32.4211 68.1239 32.5188 69.2824 32.5168C70.1715 32.5151 70.4164 32.4885 70.9841 32.332C73.2302 31.7128 74.768 29.9792 75.2478 27.5258C75.3535 26.9851 75.3671 25.9343 75.3903 16.4973L75.4161 6.06641H78.4596H81.503L81.5017 16.6768C81.5005 25.415 81.483 27.422 81.4023 28.051C80.6961 33.5532 77.0456 37.2849 71.4634 38.2112C70.4722 38.3756 68.1119 38.3787 67.0883 38.2169C65.0224 37.8903 63.1383 37.1397 61.5985 36.0301C60.7845 35.4434 59.4684 34.0437 58.912 33.1728C57.8838 31.5634 57.2816 29.791 57.0658 27.7389Z" fill="#BDFE1C"/>
</svg>
