<svg xmlns="http://www.w3.org/2000/svg" width="36" height="35" viewBox="0 0 36 35" fill="none">
  <g clip-path="url(#clip0_22_6060)">
    <path d="M11.6937 15.8316C11.8022 16.2374 12.1476 16.5347 12.5625 16.5843L18.2398 17.2612L18.9167 22.9385C18.9666 23.3593 19.2706 23.7009 19.6694 23.8073C20.075 23.9156 20.5049 23.7662 20.7562 23.4313L24.1805 18.853L29.435 21.1053C29.8209 21.2702 30.2677 21.1847 30.5644 20.888C30.8611 20.5913 30.9468 20.1445 30.7819 19.7585L28.5294 14.504L33.1077 11.0798C33.4427 10.8284 33.5921 10.3986 33.4837 9.99293C33.3754 9.58715 33.0299 9.28835 32.6149 9.2403L26.9377 8.5634L26.2608 2.88609C26.2119 2.47039 25.9139 2.12559 25.5081 2.01731C25.1024 1.90889 24.6726 2.05839 24.4212 2.39328L20.9971 6.97158L15.7425 4.71928C15.3566 4.55419 14.9098 4.63992 14.613 4.93659C14.3163 5.23327 14.2308 5.68007 14.3957 6.06603L16.648 11.3205L12.0697 14.7448C11.7348 14.9962 11.5855 15.426 11.6937 15.8316Z" fill="currentColor"/>
    <path d="M30.5644 6.38635L32.0145 4.93625C32.4153 4.53546 32.4153 3.88693 32.0145 3.48614C31.6139 3.08535 30.9652 3.08535 30.5644 3.48614L29.1143 4.93625C28.7135 5.33704 28.7135 5.9857 29.1143 6.38635C29.5151 6.78715 30.1636 6.78715 30.5644 6.38635Z" fill="currentColor"/>
    <path d="M20.2005 3.99759C20.7477 3.85103 21.0721 3.28878 20.9255 2.74149L20.3945 0.7603C20.2465 0.212946 19.6857 -0.111351 19.1384 0.0352117C18.5911 0.181774 18.2668 0.74403 18.4134 1.29132L18.9444 3.27251C19.0895 3.8146 19.6489 4.14457 20.2005 3.99759Z" fill="currentColor"/>
    <path d="M24.9771 21.8245C24.4297 21.971 24.1054 22.5333 24.252 23.0806L24.7831 25.0618C24.9281 25.6039 25.4875 25.9338 26.0392 25.7869C26.5865 25.6403 26.9108 25.078 26.7643 24.5308L26.2332 22.5496C26.0859 22.003 25.5238 21.6772 24.9771 21.8245Z" fill="currentColor"/>
    <path d="M12.9498 9.26734L10.9686 8.73639C10.4213 8.58983 9.85903 8.91399 9.71247 9.46134C9.56543 10.0138 9.89622 10.5726 10.4376 10.7174L12.4187 11.2485C12.9661 11.3951 13.5282 11.0708 13.6749 10.5234C13.8207 9.97541 13.4949 9.41315 12.9498 9.26734Z" fill="currentColor"/>
    <path d="M31.5025 15.2994C31.3555 15.8517 31.6863 16.4105 32.2276 16.5555L34.2088 17.0864C34.7561 17.233 35.3183 16.9088 35.4649 16.3615C35.6115 15.8141 35.2844 15.2505 34.7399 15.1054L32.7587 14.5743C32.2113 14.4277 31.6491 14.752 31.5025 15.2994Z" fill="currentColor"/>
    <path d="M2.25073 34.6992C2.65139 35.1 3.30005 35.1 3.70084 34.6992L16.7031 21.6972L16.3942 19.1058L13.803 18.7969L0.800491 31.7991C0.399836 32.1999 0.399836 32.8484 0.800491 33.2492L2.25073 34.6992Z" fill="currentColor"/>
  </g>
  <defs>
    <clipPath id="clip0_22_6060">
      <rect width="35" height="35" fill="white" transform="translate(0.5)"/>
    </clipPath>
  </defs>
</svg>
