<svg xmlns="http://www.w3.org/2000/svg" width="20" height="21" viewBox="0 0 20 21" fill="none">
  <g clip-path="url(#clip0_32_2734)">
    <path d="M10 0.708984C4.48625 0.708984 0 5.19523 0 10.709V20.084C0 20.429 0.28 20.709 0.625 20.709H10C15.5138 20.709 20 16.2227 20 10.709C20 5.19523 15.5138 0.708984 10 0.708984ZM10.625 13.209H5.625C5.28 13.209 5 12.929 5 12.584C5 12.239 5.28 11.959 5.625 11.959H10.625C10.97 11.959 11.25 12.239 11.25 12.584C11.25 12.929 10.97 13.209 10.625 13.209ZM14.375 9.45898H5.625C5.28 9.45898 5 9.17898 5 8.83398C5 8.48898 5.28 8.20898 5.625 8.20898H14.375C14.72 8.20898 15 8.48898 15 8.83398C15 9.17898 14.72 9.45898 14.375 9.45898Z" fill="#BDFE1C"/>
  </g>
  <defs>
    <clipPath id="clip0_32_2734">
      <rect width="20" height="20" fill="white" transform="translate(0 0.708984)"/>
    </clipPath>
  </defs>
</svg>
