<svg xmlns="http://www.w3.org/2000/svg" width="17" height="15" viewBox="0 0 17 15" fill="none">
  <path d="M12.5249 1.875C11.7749 2.1 11.1749 2.675 10.9749 3.425C10.9499 3.475 10.8999 3.475 10.8749 3.425C10.6499 2.675 10.0749 2.075 9.32485 1.875C9.27485 1.85 9.27485 1.8 9.32485 1.775C10.0749 1.55 10.6749 0.975 10.8749 0.225C10.8999 0.175 10.9499 0.175 10.9749 0.225C11.1999 0.975 11.7749 1.575 12.5249 1.775C12.5749 1.8 12.5749 1.875 12.5249 1.875Z" fill="currentColor"/>
  <path d="M3.87495 13.1992C3.12495 13.4242 2.52495 13.9992 2.32495 14.7492C2.29995 14.7992 2.24995 14.7992 2.22495 14.7492C1.99995 13.9992 1.42495 13.3992 0.674951 13.1992C0.624951 13.1742 0.624951 13.1242 0.674951 13.0992C1.42495 12.8742 2.02495 12.2992 2.22495 11.5492C2.24995 11.4992 2.29995 11.4992 2.32495 11.5492C2.54995 12.2992 3.12495 12.8992 3.87495 13.0992C3.89995 13.1242 3.89995 13.1992 3.87495 13.1992Z" fill="currentColor"/>
  <path d="M4.45 1.87461C3.925 2.02461 3.525 2.42461 3.4 2.92461C3.4 2.94961 3.35 2.94961 3.35 2.92461C3.2 2.39961 2.8 1.99961 2.3 1.87461C2.275 1.87461 2.275 1.82461 2.3 1.82461C2.825 1.67461 3.225 1.27461 3.35 0.774609C3.35 0.749609 3.4 0.749609 3.4 0.774609C3.55 1.29961 3.95 1.69961 4.45 1.82461C4.475 1.82461 4.475 1.87461 4.45 1.87461Z" fill="currentColor"/>
  <path d="M14.775 11.5504C14.25 11.7004 13.85 12.1004 13.725 12.6004C13.725 12.6254 13.675 12.6254 13.675 12.6004C13.525 12.0754 13.125 11.6754 12.625 11.5504C12.6 11.5504 12.6 11.5004 12.625 11.5004C13.15 11.3504 13.55 10.9504 13.675 10.4504C13.675 10.4254 13.725 10.4254 13.725 10.4504C13.875 10.9754 14.275 11.3754 14.775 11.5004C14.8 11.5004 14.8 11.5504 14.775 11.5504Z" fill="currentColor"/>
  <path d="M4.82505 9.67578C4.62505 9.67578 4.42505 9.57578 4.32505 9.40078C4.07505 8.95078 2.75005 7.05078 2.35005 6.57578V9.17578C2.35005 9.47578 2.12505 9.70078 1.82505 9.70078C1.52505 9.70078 1.30005 9.47578 1.30005 9.17578V5.52578C1.30005 5.17578 1.57505 4.92578 1.90005 4.92578C2.07505 4.92578 2.22505 5.00078 2.35005 5.12578C2.45005 5.22578 4.15005 7.50078 4.32505 7.72578V5.45078C4.32505 5.15078 4.57505 4.92578 4.85005 4.92578C5.15005 4.92578 5.37505 5.17578 5.37505 5.45078V9.10078C5.40005 9.42578 5.15005 9.67578 4.82505 9.67578Z" fill="currentColor"/>
  <path d="M6.5 9.40039V5.17539C6.5 5.02539 6.625 4.90039 6.775 4.90039H9.25C9.5 4.90039 9.7 5.10039 9.7 5.35039C9.7 5.60039 9.5 5.80039 9.25 5.80039H7.55V6.75039H9.025C9.275 6.75039 9.475 6.95039 9.475 7.20039C9.475 7.45039 9.275 7.65039 9.025 7.65039H7.55V8.80039H9.4C9.65 8.80039 9.85 9.00039 9.85 9.25039C9.85 9.50039 9.65 9.70039 9.4 9.70039H6.775C6.625 9.67539 6.5 9.55039 6.5 9.40039Z" fill="currentColor"/>
  <path d="M13.4002 5.425C13.6752 5.425 13.9002 5.6 13.9752 5.85C14.0002 5.925 14.0002 5.975 14.0252 6.05C14.1002 6.275 14.1502 6.525 14.2502 6.775C14.3252 7.025 14.4002 7.275 14.4752 7.525C14.5502 7.775 14.6252 8 14.7002 8.225C14.7502 8 14.8252 7.725 14.8752 7.45C14.9252 7.175 15.0002 6.9 15.0502 6.6C15.1002 6.3 15.1502 6.025 15.2002 5.725C15.2252 5.6 15.2502 5.45 15.2752 5.325C15.3252 5.075 15.5502 4.875 15.8002 4.875C16.1502 4.875 16.4002 5.2 16.3252 5.525C16.2002 6.1 16.0502 6.7 15.9002 7.3C15.7252 7.95 15.5502 8.575 15.3752 9.15C15.2752 9.425 15.0252 9.625 14.7252 9.625C14.4252 9.625 14.1752 9.45 14.0752 9.175C13.9752 8.875 13.8752 8.575 13.7752 8.25C13.6252 7.775 13.4752 7.275 13.3252 6.8C13.1752 7.275 13.0252 7.775 12.8752 8.25C12.7752 8.575 12.6752 8.875 12.5752 9.175C12.4752 9.45 12.2252 9.625 11.9252 9.625C11.6252 9.625 11.3752 9.425 11.2752 9.15C11.1002 8.55 10.9252 7.925 10.7502 7.3C10.6002 6.7 10.4502 6.125 10.3252 5.55C10.2502 5.2 10.5252 4.875 10.8752 4.875C11.1502 4.875 11.3752 5.075 11.4252 5.325C11.4502 5.45 11.4752 5.575 11.5002 5.7C11.5502 6 11.6252 6.275 11.6752 6.575C11.7252 6.875 11.8002 7.15 11.8502 7.425C11.9002 7.7 11.9752 7.95 12.0502 8.2C12.1252 7.975 12.2252 7.725 12.3002 7.475C12.3752 7.225 12.4502 6.975 12.5252 6.725C12.6002 6.475 12.6752 6.225 12.7252 6C12.7502 5.95 12.7502 5.875 12.7752 5.825C12.9002 5.6 13.1252 5.425 13.4002 5.425Z" fill="currentColor"/>
</svg>
