<svg xmlns="http://www.w3.org/2000/svg" width="20" height="20" viewBox="0 0 20 20" fill="none">
  <g clip-path="url(#clip0_84_9216)">
    <path d="M10.9564 19.9439C14.9684 19.4945 18.1837 16.2874 18.6413 12.2754C19.2418 7.02958 15.1645 2.5641 10.0535 2.5069V0.153637C10.0535 0.0229002 9.89007 -0.0465538 9.77976 0.0351567L4.93432 3.59365C4.85261 3.65493 4.85261 3.77341 4.93432 3.8347L9.77976 7.39319C9.89007 7.4749 10.0535 7.40136 10.0535 7.27471V4.92553C13.6447 4.98273 16.5209 8.0387 16.2757 11.6912C16.0674 14.8329 13.5058 17.3823 10.364 17.5825C7.03428 17.7949 4.20301 15.4172 3.69641 12.2713C3.60244 11.6871 3.09175 11.2622 2.50344 11.2622C1.77213 11.2622 1.20015 11.9118 1.31455 12.6349C2.02543 17.1167 6.16407 20.4791 10.9564 19.9439Z" fill="black"/>
  </g>
  <defs>
    <clipPath id="clip0_84_9216">
      <rect width="20" height="20" fill="white"/>
    </clipPath>
  </defs>
</svg>
