<svg xmlns="http://www.w3.org/2000/svg" width="16" height="11" viewBox="0 0 16 11" fill="none">
  <path d="M15.508 0.474108L12.8483 1.35536C12.7865 1.3759 12.7312 1.41235 12.6879 1.46105C12.6446 1.50974 12.6149 1.56897 12.6018 1.63278C12.5886 1.69659 12.5925 1.76273 12.613 1.82456C12.6335 1.8864 12.67 1.94174 12.7186 1.98505L12.9999 2.23505L9.42177 6.25567L7.11395 4.10911C6.91504 3.92397 6.65072 3.82542 6.37915 3.83515C6.10758 3.84488 5.85099 3.96208 5.66583 4.16098L1.15614 9.00286C1.0617 9.10084 0.987716 9.21665 0.938505 9.34353C0.889294 9.4704 0.865841 9.60581 0.869514 9.74185C0.873187 9.87788 0.903913 10.0118 0.959899 10.1359C1.01588 10.2599 1.09601 10.3715 1.1956 10.4643C1.29519 10.557 1.41225 10.629 1.53996 10.676C1.66766 10.7231 1.80345 10.7442 1.9394 10.7382C2.07536 10.7322 2.20875 10.6992 2.33181 10.641C2.45487 10.5829 2.56512 10.5009 2.65614 10.3997L6.46864 6.30755L8.79364 8.47005C8.89357 8.56305 9.01107 8.63515 9.13925 8.68211C9.26742 8.72907 9.40369 8.74995 9.54005 8.74351C9.67641 8.73708 9.8101 8.70347 9.93329 8.64464C10.0565 8.58582 10.1667 8.50298 10.2574 8.40098L14.5311 3.59786L14.8124 3.84786C14.8611 3.89116 14.9203 3.92089 14.9841 3.93407C15.0479 3.94724 15.1141 3.94338 15.1759 3.9229C15.2377 3.90241 15.2931 3.866 15.3364 3.81734C15.3798 3.76868 15.4095 3.70947 15.4227 3.64567L15.989 0.901296C16.0021 0.83743 15.9982 0.771223 15.9777 0.709336C15.9571 0.64745 15.9207 0.592068 15.8719 0.548763C15.8231 0.505458 15.7638 0.475759 15.7 0.462653C15.6361 0.449548 15.5699 0.453498 15.508 0.474108Z" fill="currentColor"/>
</svg>
