<svg xmlns="http://www.w3.org/2000/svg" width="21" height="21" viewBox="0 0 21 21" fill="none">
  <g clip-path="url(#clip0_51_3883)">
    <path d="M5.58743 5.90039L3.85471 6.03426C3.37257 6.07152 2.94315 6.32421 2.67652 6.72753L0.678211 9.74985C0.475987 10.0557 0.443838 10.4385 0.592157 10.7738C0.740516 11.1091 1.0454 11.3428 1.4077 11.3989L2.99421 11.6446C3.36534 9.67509 4.25377 7.71042 5.58743 5.90039Z" fill="currentColor"/>
    <path d="M9.35474 18.0053L9.60048 19.5918C9.65661 19.9541 9.89028 20.259 10.2255 20.4073C10.365 20.4691 10.5127 20.4995 10.6596 20.4995C10.866 20.4995 11.0709 20.4394 11.2495 20.3213L14.2719 18.323C14.6752 18.0563 14.9279 17.6269 14.9651 17.1448L15.099 15.4121C13.2889 16.7458 11.3243 17.6342 9.35474 18.0053Z" fill="currentColor"/>
    <path d="M8.75814 16.9063C8.81322 16.9063 8.86861 16.9017 8.92388 16.8925C9.74903 16.7546 10.5443 16.5221 11.303 16.2179L4.78235 9.69727C4.47813 10.4559 4.24571 11.2512 4.10775 12.0764C4.05337 12.4017 4.16247 12.733 4.39563 12.9662L8.03404 16.6046C8.22764 16.7982 8.48892 16.9063 8.75814 16.9063Z" fill="currentColor"/>
    <path d="M18.9053 9.36724C20.5009 6.28234 20.56 3.02236 20.4766 1.49347C20.4481 0.969606 20.0304 0.551953 19.5065 0.523398C19.2576 0.509805 18.9625 0.5 18.63 0.5C16.9204 0.5 14.2153 0.758943 11.6327 2.09475C9.58034 3.15635 6.88907 5.49387 5.30127 8.5658C5.32002 8.58044 5.33834 8.59599 5.3556 8.61326L12.3868 15.6445C12.4041 15.6617 12.4196 15.68 12.4342 15.6987C15.5062 14.1109 17.8437 11.4196 18.9053 9.36724ZM12.1288 4.72809C13.271 3.58587 15.1296 3.58576 16.2719 4.72809C16.8252 5.28141 17.13 6.01714 17.13 6.79968C17.13 7.58221 16.8252 8.31795 16.2719 8.87126C15.7008 9.44231 14.9505 9.7279 14.2003 9.72797C13.45 9.72801 12.7 9.44247 12.1288 8.87126C11.5754 8.31795 11.2706 7.58221 11.2706 6.79968C11.2706 6.01714 11.5754 5.28141 12.1288 4.72809Z" fill="currentColor"/>
    <path d="M12.9575 8.04289C13.6428 8.72824 14.7581 8.72828 15.4434 8.04289C15.7754 7.71086 15.9583 7.26945 15.9583 6.79992C15.9583 6.33039 15.7754 5.88898 15.4434 5.55699C15.1008 5.2143 14.6506 5.04297 14.2004 5.04297C13.7503 5.04297 13.3002 5.2143 12.9575 5.55699C12.6255 5.88898 12.4426 6.33039 12.4426 6.79992C12.4426 7.26945 12.6255 7.7109 12.9575 8.04289Z" fill="currentColor"/>
    <path d="M1.09792 16.9814C1.24788 16.9814 1.39784 16.9242 1.51222 16.8097L3.42523 14.8967C3.65405 14.6679 3.65405 14.2969 3.42523 14.0681C3.19644 13.8393 2.82542 13.8393 2.59659 14.0681L0.683584 15.9811C0.454756 16.2099 0.454756 16.5809 0.683584 16.8097C0.797998 16.9242 0.947959 16.9814 1.09792 16.9814Z" fill="currentColor"/>
    <path d="M5.17843 15.822C4.94964 15.5932 4.57862 15.5932 4.3498 15.822L0.671865 19.4999C0.443037 19.7288 0.443037 20.0997 0.671865 20.3286C0.786279 20.443 0.93624 20.5002 1.0862 20.5002C1.23616 20.5002 1.38612 20.443 1.5005 20.3285L5.17839 16.6506C5.40726 16.4218 5.40726 16.0508 5.17843 15.822Z" fill="currentColor"/>
    <path d="M6.1029 17.574L4.18993 19.487C3.9611 19.7158 3.9611 20.0868 4.18993 20.3156C4.30435 20.43 4.45431 20.4872 4.60423 20.4872C4.75415 20.4872 4.90415 20.4301 5.01853 20.3156L6.93153 18.4026C7.16036 18.1738 7.16036 17.8028 6.93153 17.574C6.70274 17.3451 6.33173 17.3451 6.1029 17.574Z" fill="currentColor"/>
  </g>
  <defs>
    <clipPath id="clip0_51_3883">
      <rect width="20" height="20" fill="white" transform="translate(0.5 0.5)"/>
    </clipPath>
  </defs>
</svg>
