<svg xmlns="http://www.w3.org/2000/svg" width="24" height="25" viewBox="0 0 24 25" fill="none">
  <g clip-path="url(#clip0_115_5189)">
    <path d="M8.75 18.3203V22.9583C8.75 23.2823 8.958 23.5693 9.266 23.6713C9.343 23.6963 9.422 23.7083 9.5 23.7083C9.734 23.7083 9.96 23.5983 10.104 23.4023L12.817 19.7103L8.75 18.3203Z" fill="#076200"/>
    <path d="M23.685 0.848073C23.455 0.685073 23.153 0.663073 22.903 0.794073L0.403045 12.5441C0.137044 12.6831 -0.0199555 12.9671 0.00204448 13.2661C0.0250445 13.5661 0.224045 13.8221 0.507045 13.9191L6.76205 16.0571L20.083 4.66707L9.77505 17.0861L20.258 20.6691C20.336 20.6951 20.418 20.7091 20.5 20.7091C20.636 20.7091 20.771 20.6721 20.89 20.6001C21.08 20.4841 21.209 20.2891 21.242 20.0701L23.992 1.57007C24.033 1.29007 23.915 1.01207 23.685 0.848073Z" fill="#076200"/>
  </g>
  <defs>
    <clipPath id="clip0_115_5189">
      <rect width="24" height="24" fill="white" transform="translate(0 0.708984)"/>
    </clipPath>
  </defs>
</svg>
