<svg xmlns="http://www.w3.org/2000/svg" width="32" height="33" viewBox="0 0 32 33" fill="none">
  <path d="M30.6656 16.5005C30.6657 16.2527 30.5968 16.0098 30.4666 15.799C30.3363 15.5882 30.1499 15.4179 29.9283 15.3071L25.647 13.1671L29.9283 11.0338C30.1502 10.9232 30.3368 10.753 30.4673 10.5422C30.5978 10.3314 30.6669 10.0884 30.6669 9.84047C30.6669 9.59256 30.5978 9.34956 30.4673 9.13876C30.3368 8.92797 30.1502 8.75771 29.9283 8.64713L16.595 1.98047C16.4099 1.88799 16.2059 1.83984 15.999 1.83984C15.7921 1.83984 15.588 1.88799 15.403 1.98047L2.06963 8.64713C1.84776 8.75771 1.6611 8.92797 1.53064 9.13876C1.40017 9.34956 1.33105 9.59256 1.33105 9.84047C1.33105 10.0884 1.40017 10.3314 1.53064 10.5422C1.6611 10.753 1.84776 10.9232 2.06963 11.0338L6.35097 13.1671L2.06963 15.3071C1.84776 15.4177 1.6611 15.588 1.53064 15.7988C1.40017 16.0096 1.33105 16.2526 1.33105 16.5005C1.33105 16.7484 1.40017 16.9914 1.53064 17.2022C1.6611 17.413 1.84776 17.5832 2.06963 17.6938L6.35097 19.8338L2.06963 21.9738C1.84776 22.0844 1.6611 22.2546 1.53064 22.4654C1.40017 22.6762 1.33105 22.9192 1.33105 23.1671C1.33105 23.415 1.40017 23.658 1.53064 23.8688C1.6611 24.0796 1.84776 24.2499 2.06963 24.3605L15.403 31.0271C15.588 31.1196 15.7921 31.1678 15.999 31.1678C16.2059 31.1678 16.4099 31.1196 16.595 31.0271L29.9283 24.3605C30.1502 24.2499 30.3368 24.0796 30.4673 23.8688C30.5978 23.658 30.6669 23.415 30.6669 23.1671C30.6669 22.9192 30.5978 22.6762 30.4673 22.4654C30.3368 22.2546 30.1502 22.0844 29.9283 21.9738L25.647 19.8338L29.9283 17.7005C30.151 17.5892 30.338 17.4178 30.4683 17.2058C30.5986 16.9937 30.667 16.7494 30.6656 16.5005ZM26.351 23.1671L15.999 28.3431L5.64697 23.1671L9.3323 21.3245L15.403 24.3671C15.588 24.4596 15.7921 24.5078 15.999 24.5078C16.2059 24.5078 16.4099 24.4596 16.595 24.3671L22.6656 21.3245L26.351 23.1671ZM15.999 21.6765L5.64697 16.5005L9.3323 14.6578L15.403 17.7005C15.588 17.7929 15.7921 17.8411 15.999 17.8411C16.2059 17.8411 16.4099 17.7929 16.595 17.7005L22.6656 14.6578L26.351 16.5005L15.999 21.6765Z" fill="currentColor"/>
</svg>
