<svg xmlns="http://www.w3.org/2000/svg" width="16" height="16" viewBox="0 0 16 16" fill="none">
  <g clip-path="url(#clip0_32_3899)">
    <path d="M15.3043 12.1318L13.172 9.99955L12.0677 8.89205C11.6762 8.50411 11.013 8.78257 11.013 9.33315L11.3182 10.9215H6.07396C5.54627 10.9215 5.04004 10.7121 4.66689 10.3389L2.80886 8.48088C2.48745 8.15912 2.06607 8 1.64152 8C1.13002 8 0.613584 8.23481 0.282321 8.71075C-0.18025 9.37504 -0.0542223 10.2872 0.518183 10.8596L1.0149 11.3563L2.90884 13.2502C3.53088 13.8723 4.37435 14.2215 5.25373 14.2215H11.3182L11.013 15.8098C11.013 16.3604 11.6762 16.6357 12.0677 16.2474L13.172 15.1431L15.3043 13.0073C15.4271 12.8845 15.4901 12.7289 15.4901 12.5697C15.4901 12.4138 15.4271 12.2547 15.3043 12.1318Z" fill="currentColor"/>
    <path d="M0.696371 3.86757L2.82863 5.99984L3.93296 7.10733C4.32442 7.49527 4.98765 7.21681 4.98765 6.66623L4.68244 5.07786H9.92702C10.4547 5.07786 10.9609 5.28732 11.3341 5.66048L13.1921 7.51851C13.5132 7.84026 13.9346 7.99938 14.3591 7.99938C14.8706 7.99938 15.387 7.76458 15.7183 7.28863C16.1809 6.62434 16.0549 5.71223 15.4824 5.13982L14.9857 4.6431L13.0918 2.74917C12.4698 2.12712 11.6263 1.77791 10.7469 1.77791H4.68244L4.98765 0.189536C4.98765 -0.361043 4.32442 -0.636332 3.93296 -0.24804L2.82863 0.856286L0.696371 2.99207C0.573512 3.11493 0.510498 3.27053 0.510498 3.42965C0.510498 3.5856 0.573512 3.74471 0.696371 3.86757Z" fill="currentColor"/>
  </g>
  <defs>
    <clipPath id="clip0_32_3899">
      <rect width="16" height="16" fill="white"/>
    </clipPath>
  </defs>
</svg>
