<svg xmlns="http://www.w3.org/2000/svg" width="25" height="25" viewBox="0 0 25 25" fill="none">
  <path fill-rule="evenodd" clip-rule="evenodd" d="M3.61728 11.3802C8.8323 9.10812 12.3098 7.61021 14.0498 6.8865C19.0177 4.82014 20.05 4.4612 20.7229 4.44935C20.8709 4.44674 21.2018 4.48341 21.4161 4.65733C21.5971 4.80418 21.6469 5.00255 21.6707 5.14179C21.6945 5.28102 21.7242 5.59819 21.7006 5.84602C21.4314 8.67469 20.2665 15.5391 19.6739 18.7073C19.4231 20.0479 18.9293 20.4974 18.4513 20.5414C17.4125 20.6369 16.6236 19.8548 15.6174 19.1953C14.043 18.1632 13.1535 17.5207 11.6252 16.5136C9.85898 15.3497 11.0039 14.71 12.0105 13.6645C12.2739 13.3909 16.8511 9.22761 16.9397 8.84993C16.9508 8.80269 16.9611 8.62663 16.8565 8.53365C16.7519 8.44068 16.5975 8.47248 16.4861 8.49776C16.3282 8.5336 13.8129 10.1961 8.94038 13.4852C8.22644 13.9754 7.57978 14.2143 7.00039 14.2018C6.36165 14.188 5.13299 13.8406 4.21961 13.5437C3.09931 13.1796 2.20891 12.987 2.28644 12.3686C2.32683 12.0464 2.77044 11.717 3.61728 11.3802Z" fill="currentColor"/>
</svg>
