<svg xmlns="http://www.w3.org/2000/svg" width="17" height="17" viewBox="0 0 17 17" fill="none">
  <path d="M4.5 10H3C2.44772 10 2 10.4477 2 11V14.5C2 15.0523 2.44772 15.5 3 15.5H4.5C5.05228 15.5 5.5 15.0523 5.5 14.5V11C5.5 10.4477 5.05228 10 4.5 10Z" fill="currentColor"/>
  <path d="M9.5 8H7.5C6.94772 8 6.5 8.44772 6.5 9V14.5C6.5 15.0523 6.94772 15.5 7.5 15.5H9.5C10.0523 15.5 10.5 15.0523 10.5 14.5V9C10.5 8.44772 10.0523 8 9.5 8Z" fill="currentColor"/>
  <path d="M14 10.5H12.5C11.9477 10.5 11.5 10.9477 11.5 11.5V14.5C11.5 15.0523 11.9477 15.5 12.5 15.5H14C14.5523 15.5 15 15.0523 15 14.5V11.5C15 10.9477 14.5523 10.5 14 10.5Z" fill="currentColor"/>
  <path d="M11.9641 6.00001C12.1021 5.76101 12.4076 5.67901 12.6471 5.81701L13.0801 6.06701C13.3196 6.20501 13.4011 6.51101 13.2631 6.75001C13.1251 6.98901 12.8196 7.07101 12.5801 6.93301L12.1471 6.68301C11.9076 6.54501 11.8261 6.23901 11.9641 6.00001Z" fill="currentColor"/>
  <path d="M11.9641 2.00001C12.1021 2.23901 12.4076 2.32101 12.6471 2.18301L13.0801 1.93301C13.3196 1.79501 13.4011 1.48901 13.2631 1.25001C13.1251 1.01101 12.8196 0.92901 12.5801 1.06701L12.1471 1.31701C11.9076 1.45501 11.8261 1.76101 11.9641 2.00001Z" fill="currentColor"/>
  <path d="M12.5 4C12.5 4.276 12.7235 4.5 13 4.5H13.5C13.7765 4.5 14 4.276 14 4C14 3.724 13.7765 3.5 13.5 3.5H13C12.7235 3.5 12.5 3.724 12.5 4Z" fill="currentColor"/>
  <path d="M5.03604 6.00001C4.89804 5.76101 4.59254 5.67901 4.35304 5.81701L3.92004 6.06701C3.68054 6.20501 3.59904 6.51101 3.73704 6.75001C3.87504 6.98901 4.18054 7.07101 4.42004 6.93301L4.85304 6.68301C5.09254 6.54501 5.17404 6.23901 5.03604 6.00001Z" fill="currentColor"/>
  <path d="M5.03604 2.00001C4.89804 2.23901 4.59254 2.32101 4.35304 2.18301L3.92004 1.93301C3.68054 1.79501 3.59904 1.48901 3.73704 1.25001C3.87504 1.01101 4.18054 0.92901 4.42004 1.06701L4.85304 1.31701C5.09254 1.45501 5.17404 1.76101 5.03604 2.00001Z" fill="currentColor"/>
  <path d="M3.5 4.5H4C4.2765 4.5 4.5 4.276 4.5 4C4.5 3.724 4.2765 3.5 4 3.5H3.5C3.2235 3.5 3 3.724 3 4C3 4.276 3.2235 4.5 3.5 4.5Z" fill="currentColor"/>
  <path d="M11.2019 3.61012L10.2394 4.54862L10.4669 5.87362C10.5419 6.31062 10.0829 6.64412 9.6904 6.43762L8.5004 5.81212L7.3104 6.43762C6.9179 6.64412 6.4589 6.31062 6.5339 5.87362L6.7614 4.54862L5.7989 3.61012C5.4814 3.30062 5.6564 2.76113 6.0954 2.69713L7.4259 2.50363L8.0209 1.29812C8.2174 0.900625 8.7844 0.900625 8.9804 1.29812L9.5754 2.50363L10.9059 2.69713C11.3449 2.76113 11.5199 3.30012 11.2024 3.61012H11.2019Z" fill="currentColor"/>
</svg>
