<svg xmlns="http://www.w3.org/2000/svg" width="17" height="17" viewBox="0 0 17 17" fill="none">
  <g clip-path="url(#clip0_2003_31)">
    <path d="M12.9155 5.62246C12.8089 5.51889 12.6594 5.47183 12.5131 5.49589C12.3665 5.51986 12.2399 5.61189 12.1719 5.74396C11.938 6.1983 11.6409 6.61583 11.2914 6.98493C11.3263 6.7183 11.3438 6.45008 11.3438 6.18114C11.3438 5.66511 11.2746 5.13408 11.1382 4.60261C10.6895 2.85696 9.51293 1.38068 7.91027 0.552332C7.77074 0.480238 7.60449 0.482769 7.46721 0.559082C7.32993 0.635426 7.24002 0.775394 7.22771 0.931957C7.10277 2.51833 6.28565 3.96158 4.98462 4.89258C4.9674 4.90499 4.9503 4.91755 4.93321 4.93005C4.8978 4.95596 4.86443 4.98046 4.83324 5.00102C4.82837 5.00427 4.82352 5.00758 4.81877 5.01099C4.00052 5.59683 3.32537 6.37777 2.86621 7.26961C2.39965 8.17677 2.16309 9.15024 2.16309 10.1629C2.16309 10.6788 2.23224 11.2098 2.36865 11.7414C3.08849 14.5431 5.60987 16.5 8.50018 16.5C11.9943 16.5 14.8369 13.6571 14.8369 10.1629C14.8369 8.43977 14.1545 6.82727 12.9155 5.62246Z" fill="currentColor"/>
  </g>
  <defs>
    <clipPath id="clip0_2003_31">
      <rect width="16" height="16" fill="white" transform="translate(0.5 0.5)"/>
    </clipPath>
  </defs>
</svg>
