<svg width="215" height="77" viewBox="0 0 215 77" fill="none" xmlns="http://www.w3.org/2000/svg">
<path fill-rule="evenodd" clip-rule="evenodd" d="M80.3184 38.4956V60.9501H84.4476H88.5769V38.4956V16.041H84.4476H80.3184V38.4956Z" fill="#EC5409"/>
<path d="M54.7011 15.7518C55.2602 15.6889 55.8484 15.6188 56.0081 15.596C56.6059 15.5107 59.5304 15.6363 60.51 15.7895C67.7543 16.922 72.713 21.5801 74.2324 28.6801L74.4937 29.9008L74.5233 45.3963L74.5529 60.8917H70.2906H66.0285V46.8431C66.0285 37.8425 65.9923 32.4277 65.9278 31.7735C65.5446 27.8862 63.5037 25.2335 60.0547 24.1399C59.2671 23.8902 59.0718 23.8697 57.4604 23.8685C55.9617 23.8673 55.6093 23.8983 54.9432 24.0888C52.2057 24.8723 50.2627 26.736 49.3586 29.4451C48.8286 31.0335 48.8586 30.1016 48.8225 46.1018L48.7893 60.8917H44.5302H40.271L40.3009 45.3459L40.3308 29.8L40.5501 28.8029C41.2184 25.7649 42.2579 23.5238 43.9827 21.4031C46.4455 18.3747 50.5302 16.2211 54.7011 15.7518Z" fill="#EC5409"/>
<path d="M0.591296 46.554C0.523913 45.9105 0.48877 40.5355 0.48877 30.857V16.1387H4.7462H9.00353L9.03354 31.0294C9.06355 45.9092 9.06375 45.9208 9.27132 46.6761C9.67068 48.1292 9.92888 48.7326 10.5778 49.7295C11.3735 50.9517 12.6958 52.047 14.0642 52.6174C15.2821 53.1251 16.0536 53.2623 17.6734 53.2593C18.9167 53.257 19.259 53.2197 20.0529 53C23.1935 52.1311 25.3438 49.6981 26.0147 46.255C26.1625 45.4962 26.1815 44.0215 26.214 30.7775L26.25 16.1387H30.5056H34.7612L34.7593 31.0294C34.7577 43.2927 34.7332 46.1093 34.6203 46.9921C33.6328 54.7139 28.5285 59.951 20.723 61.251C19.337 61.4818 16.0368 61.4861 14.6055 61.2589C11.7169 60.8006 9.08234 59.7473 6.92927 58.19C5.79112 57.3667 3.95086 55.4023 3.17286 54.1801C1.73516 51.9214 0.893164 49.434 0.591296 46.554Z" fill="#EC5409"/>
<circle cx="100.749" cy="55.7044" r="5.24929" fill="#EC5409"/>
<path d="M140.512 46.044C140.444 45.3996 140.409 40.0174 140.409 30.3259V15.5879H144.672H148.935L148.965 30.4986C148.995 45.3983 148.996 45.4099 149.203 46.1662C149.603 47.6212 149.862 48.2255 150.512 49.2237C151.308 50.4476 152.633 51.5443 154.003 52.1155C155.222 52.6239 155.995 52.7612 157.617 52.7583C158.862 52.756 159.205 52.7186 160 52.4986C163.144 51.6285 165.298 49.1923 165.969 45.7445C166.117 44.9847 166.136 43.5081 166.169 30.2463L166.205 15.5879H170.466H174.728L174.726 30.4986C174.724 42.7783 174.699 45.5987 174.586 46.4827C173.598 54.2148 168.487 59.459 160.671 60.7606C159.283 60.9917 155.978 60.9961 154.545 60.7686C151.652 60.3096 149.014 59.2549 146.858 57.6955C145.719 56.8711 143.876 54.9041 143.097 53.6803C141.657 51.4186 140.814 48.9278 140.512 46.044Z" fill="#EC5409"/>
<path d="M194.359 15.754C194.919 15.6911 195.507 15.6208 195.667 15.598C196.266 15.5125 199.194 15.6384 200.175 15.7918C207.429 16.9258 212.395 21.5901 213.916 28.6997L214.178 29.922L214.207 45.4382L214.237 60.9544H209.969H205.701V46.887C205.701 37.8743 205.665 32.4522 205.6 31.7971C205.217 27.9046 203.173 25.2484 199.719 24.1534C198.931 23.9033 198.735 23.8828 197.122 23.8816C195.621 23.8804 195.268 23.9114 194.601 24.1022C191.86 24.8867 189.914 26.7529 189.009 29.4656C188.478 31.0562 188.508 30.123 188.472 46.1446L188.439 60.9544H184.174H179.909L179.939 45.3877L179.969 29.8211L180.189 28.8226C180.858 25.7805 181.899 23.5365 183.626 21.4128C186.092 18.3804 190.182 16.2239 194.359 15.754Z" fill="#EC5409"/>
<path fill-rule="evenodd" clip-rule="evenodd" d="M120.316 24.9588C122.718 20.0426 127.369 16.6709 132.895 15.8403C133.588 15.736 134.751 15.6365 135.479 15.6194L136.802 15.5879V20.2484V24.9089L135.101 24.9115C127.581 24.9115 126.281 28.3031 126.275 32.4036L126.273 34.104L132.265 33.9781H136.802V38.5126V40.9285H132.268L126.279 41.0545L126.213 52.3053L126.147 61.4374L123.001 61.3802L118.41 61.4486V32.0899C118.493 29.8625 119.179 27.2867 120.316 24.9588Z" fill="#EC5409"/>
</svg>
