<svg xmlns="http://www.w3.org/2000/svg" width="24" height="24" viewBox="0 0 24 24" fill="none">
  <path d="M9.47201 1.19922C9.30121 1.19922 9.14121 1.28162 9.04201 1.42042L3.31281 9.44122C3.23961 9.54402 3.20001 9.66722 3.20001 9.79322C3.20001 10.128 3.47121 10.3992 3.80601 10.3992H6.80001V22.7992H10V1.72722C10 1.43562 9.76361 1.19922 9.47201 1.19922Z" fill="currentColor"/>
  <path d="M14.528 22.7992C14.6988 22.7992 14.8588 22.7168 14.958 22.578L20.6872 14.5572C20.7604 14.4544 20.8 14.3312 20.8 14.2052C20.8 13.8704 20.5288 13.5992 20.194 13.5992H17.2V1.19922H14V22.2712C14 22.5628 14.2364 22.7992 14.528 22.7992Z" fill="currentColor"/>
</svg>
