<svg xmlns="http://www.w3.org/2000/svg" width="25" height="25" viewBox="0 0 25 25" fill="none">
  <path fill-rule="evenodd" clip-rule="evenodd" d="M5.77984 6.26078C5.51474 6.26078 5.29984 6.47568 5.29984 6.74078V7.58078C5.29984 7.62221 5.3051 7.66243 5.31496 7.70078H18.2598C18.79 7.70078 19.2198 8.1306 19.2198 8.66078V12.0208H15.8598C14.7995 12.0208 13.9398 12.8804 13.9398 13.9408C13.9398 15.0012 14.7995 15.8608 15.8598 15.8608H19.2198V18.9808C19.2198 19.511 18.79 19.9408 18.2598 19.9408H5.29984C4.76966 19.9408 4.33984 19.511 4.33984 18.9808V7.58078V6.74078C4.33984 5.94549 4.98456 5.30078 5.77984 5.30078H14.8998C15.1649 5.30078 15.3798 5.51568 15.3798 5.78078C15.3798 6.04589 15.1649 6.26078 14.8998 6.26078H5.77984ZM16.5798 14.6608C16.9775 14.6608 17.2998 14.3384 17.2998 13.9408C17.2998 13.5431 16.9775 13.2208 16.5798 13.2208C16.1822 13.2208 15.8598 13.5431 15.8598 13.9408C15.8598 14.3384 16.1822 14.6608 16.5798 14.6608Z" fill="currentColor"/>
</svg>
